<?xml version="1.0" encoding="UTF-8"?>
<svg id="Capa_2" data-name="Capa 2" xmlns="http://www.w3.org/2000/svg" viewBox="0 0 141 141">
  <defs>
    <style>
      .cls-1 {
        fill: #d5ff00;
        stroke: #000;
        stroke-width: 3px;
      }

      .cls-2 {
        fill: #fff;
      }
    </style>
  </defs>
  <g id="Capa_1-2" data-name="Capa 1">
    <rect class="cls-2" width="141" height="141" rx="27" ry="27"/>
    <path class="cls-1" d="M98.01,54.5l.44.73,8.68,14.57,8.72-14.57.44-.73h14.55v33.19h-13.18v-9.35l-5.16,8.62-.44.73h-10.15l-.43-.75-4.75-8.3v9.06h-13.23v-33.19h14.51Z"/>
    <path class="cls-1" d="M63.72,53.5c6.5,0,11.07.8,14.41,2.42,3.41,1.65,5.41,4.08,6.9,7l.79,1.55-1.65.55-3.87,1.29h6.08v20.67h-11.16v-1.84c-.76.39-1.61.74-2.59,1.02-2.14.61-4.86.91-8.63.91-8.12,0-13.77-1.57-17.41-4.52-3.71-3.01-5.07-7.23-5.07-11.9,0-5.89,2.65-10.26,6.82-13.1,4.11-2.79,9.61-4.05,15.4-4.05ZM63.63,65.1c-4.19,0-6.35.75-7.47,1.67-1.03.86-1.43,2.1-1.43,3.96,0,1.7.35,2.79,1.32,3.55.5.39,1.22.75,2.26,1.03v-9h12.92c-1.39-.67-3.71-1.21-7.6-1.21Z"/>
    <path class="cls-1" d="M32.72,53.5c8.06,0,13.73,1.38,17.41,4.03,3.78,2.73,5.24,6.63,5.24,11.06v1.5h-13.29l-.18-1.25s0-.02-.01-.05c-.02-.06-.06-.18-.13-.33-.14-.3-.42-.75-.97-1.23-1.08-.94-3.38-2.13-8.16-2.13-4.16,0-6.23.82-7.26,1.73-.97.85-1.29,2.01-1.29,3.48,0,1.57.44,2.77,1.5,3.63,1.14.92,3.24,1.66,7.05,1.66,5.17,0,7.47-1.03,8.46-1.79.48-.37.67-.7.75-.87.03-.07.05-.13.05-.15l.03-1.4h13.46v1.5c0,3.8-1.18,7.48-4.8,10.15-3.52,2.59-9.13,4.04-17.59,4.04s-13.71-1.19-17.37-3.96c-3.78-2.86-5.11-7.15-5.11-12.46,0-6.13,1.95-10.57,5.96-13.39,3.89-2.74,9.45-3.76,16.26-3.76Z"/>
    <rect x="69.01" y="64.89" width="11.29" height="2.89"/>
    <path d="M77.03,72.42h-17.36c.04,1.61.07,3.22.11,4.83,2.23.28,4.94.43,8.01.24,3.67-.23,6.8-.9,9.24-1.61v-3.46Z"/>
  </g>
</svg>