<?xml version="1.0" encoding="UTF-8"?>
<svg id="Capa_1" xmlns="http://www.w3.org/2000/svg" version="1.1" viewBox="0 0 141 141">
  <!-- Generator: Adobe Illustrator 30.3.0, SVG Export Plug-In . SVG Version: 2.1.3 Build 182)  -->
  <defs>
    <style>
      .st0, .st1, .st2 {
        stroke: #000;
      }

      .st0, .st2 {
        stroke-width: 3px;
      }

      .st3 {
        font-family: HansonBold, Hanson;
        font-size: 8px;
      }

      .st1 {
        stroke-width: 3px;
      }

      .st1, .st2 {
        fill: #d5ff00;
      }

      .st4 {
        fill: #fff;
      }

      .st5 {
        font-family: HelveticaNeue, 'Helvetica Neue';
        font-size: 6px;
      }
    </style>
  </defs>
  <g>
    <rect class="st4" x="-174.8" y="-57.7" width="141" height="141" rx="27" ry="27"/>
    <path class="st2" d="M-76.8-3.2l.4.7,8.7,14.6,8.7-14.6.4-.7h14.6V30h-13.2v-9.4l-5.2,8.6-.4.7h-10.1l-.4-.8-4.7-8.3v9.1h-13.2V-3.2h14.5Z"/>
    <path class="st2" d="M-111.1-4.2c6.5,0,11.1.8,14.4,2.4,3.4,1.6,5.4,4.1,6.9,7l.8,1.6-1.7.6-3.9,1.3h6.1v20.7h-11.2v-1.8c-.8.4-1.6.7-2.6,1-2.1.6-4.9.9-8.6.9-8.1,0-13.8-1.6-17.4-4.5-3.7-3-5.1-7.2-5.1-11.9,0-5.9,2.6-10.3,6.8-13.1,4.1-2.8,9.6-4.1,15.4-4.1ZM-111.2,7.4c-4.2,0-6.4.7-7.5,1.7-1,.9-1.4,2.1-1.4,4,0,1.7.4,2.8,1.3,3.6.5.4,1.2.7,2.3,1v-9h12.9c-1.4-.7-3.7-1.2-7.6-1.2Z"/>
    <path class="st2" d="M-142.1-4.2c8.1,0,13.7,1.4,17.4,4,3.8,2.7,5.2,6.6,5.2,11.1v1.5h-13.3l-.2-1.3s0,0,0,0c0,0,0-.2-.1-.3-.1-.3-.4-.8-1-1.2-1.1-.9-3.4-2.1-8.2-2.1s-6.2.8-7.3,1.7c-1,.9-1.3,2-1.3,3.5,0,1.6.4,2.8,1.5,3.6,1.1.9,3.2,1.7,7,1.7s7.5-1,8.5-1.8c.5-.4.7-.7.7-.9,0,0,0-.1,0-.2v-1.4h13.5v1.5c0,3.8-1.2,7.5-4.8,10.1-3.5,2.6-9.1,4-17.6,4s-13.7-1.2-17.4-4c-3.8-2.9-5.1-7.1-5.1-12.5,0-6.1,2-10.6,6-13.4,3.9-2.7,9.5-3.8,16.3-3.8Z"/>
    <rect x="-105.8" y="7.2" width="11.3" height="2.9"/>
    <path d="M-97.8,14.7h-17.4c0,1.6,0,3.2.1,4.8,2.2.3,4.9.4,8,.2,3.7-.2,6.8-.9,9.2-1.6v-3.5Z"/>
  </g>
  <g>
    <rect class="st4" x="-343.1" y="-61.4" width="141" height="141" rx="-30.6" ry="-30.6"/>
    <g>
      <g>
        <path class="st2" d="M-244.6-11.4l.4.7,8.7,14.6,8.7-14.6.4-.7h14.6V21.7h-13.2v-9.4l-5.2,8.6-.4.7h-10.1l-.4-.8-4.7-8.3v9.1h-13.2V-11.4h14.5Z"/>
        <path class="st1" d="M-278.9-12.4c6.5,0,11.1.8,14.4,2.5,3.4,1.7,5.4,4.2,6.9,7.1l.8,1.6-1.7.6-3.9,1.3h6.1v21h-11.2v-1.9c-.8.4-1.6.7-2.6,1-2.1.6-4.9.9-8.6.9-8.1,0-13.8-1.6-17.4-4.6-3.7-3.1-5.1-7.4-5.1-12.1,0-6,2.6-10.4,6.8-13.3,4.1-2.8,9.6-4.1,15.4-4.1ZM-279-.6c-4.2,0-6.4.8-7.5,1.7-1,.9-1.4,2.1-1.4,4,0,1.7.4,2.8,1.3,3.6.5.4,1.2.8,2.3,1V.6h12.9c-1.4-.7-3.7-1.2-7.6-1.2Z"/>
        <path class="st2" d="M-309.9-12.4c8.1,0,13.7,1.4,17.4,4,3.8,2.7,5.2,6.6,5.2,11.1v1.5h-13.3l-.2-1.3s0,0,0,0c0,0,0-.2-.1-.3-.1-.3-.4-.8-1-1.2-1.1-.9-3.4-2.1-8.2-2.1s-6.2.8-7.3,1.7c-1,.9-1.3,2-1.3,3.5,0,1.6.4,2.8,1.5,3.6,1.1.9,3.2,1.7,7,1.7s7.5-1,8.5-1.8c.5-.4.7-.7.7-.9,0,0,0-.1,0-.2v-1.4h13.5v1.5c0,3.8-1.2,7.5-4.8,10.1-3.5,2.6-9.1,4-17.6,4s-13.7-1.2-17.4-4c-3.8-2.9-5.1-7.1-5.1-12.5,0-6.1,2-10.6,6-13.4,3.9-2.7,9.5-3.8,16.3-3.8Z"/>
        <rect x="-273.6" y="-1" width="11.3" height="2.9"/>
        <path d="M-265.6,6.9h-17.4v4.8c2.3.3,5,.4,8.1.2,3.7-.2,6.8-.9,9.2-1.6v-3.5Z"/>
        <rect x="-268.9" y="21.4" width="8.6" height="1.8"/>
        <path class="st0" d="M-307.3.4c-3.4-.9-8.4-.3-9.5,2.4-.5,1.1-.3,2.5.4,3.6,2.9,4.1,14.8,1.6,15.2-1.4.3-1.8-3.4-3.9-6.2-4.6Z"/>
      </g>
      <text class="st3" transform="translate(-331.4 32) scale(1 1)"><tspan x="0" y="0">UX &amp; GRAPHIC DESING</tspan></text>
      <text class="st5" transform="translate(-293.8 39.9) scale(1 1)"><tspan x="0" y="0">PHOTOGRAPHY</tspan></text>
    </g>
  </g>
</svg>