<?xml version="1.0" encoding="UTF-8"?>
<svg id="Capa_2" data-name="Capa 2" xmlns="http://www.w3.org/2000/svg" viewBox="0 0 141 141">
  <defs>
    <style>
      .cls-1, .cls-2, .cls-3 {
        stroke: #000;
      }

      .cls-1, .cls-3 {
        stroke-width: 3px;
      }

      .cls-4 {
        font-family: HansonBold, Hanson;
        font-size: 7.99px;
      }

      .cls-2 {
        stroke-width: 3.03px;
      }

      .cls-2, .cls-3 {
        fill: #d5ff00;
      }

      .cls-5 {
        fill: #fff;
      }

      .cls-6 {
        font-family: HelveticaNeue, 'Helvetica Neue';
        font-size: 6px;
      }

      .cls-7 {
        letter-spacing: -.08em;
      }

      .cls-8 {
        letter-spacing: -.02em;
      }

      .cls-9 {
        letter-spacing: -.01em;
      }

      .cls-10 {
        letter-spacing: -.01em;
      }

      .cls-11 {
        letter-spacing: .02em;
      }

      .cls-12 {
        letter-spacing: 0em;
      }
    </style>
  </defs>
  <g id="Capa_1-2" data-name="Capa 1">
    <g>
      <rect class="cls-5" x="0" y="0" width="141" height="141" rx="70.5" ry="70.5"/>
      <g>
        <g>
          <path class="cls-3" d="M98.55,49.96l.44.73,8.68,14.57,8.72-14.57.44-.73h14.55v33.19h-13.18v-9.35l-5.16,8.62-.44.73h-10.15l-.43-.75-4.75-8.3v9.06h-13.23v-33.19h14.51Z"/>
          <path class="cls-2" d="M64.26,48.96c6.5,0,11.07.82,14.41,2.46,3.41,1.68,5.41,4.15,6.9,7.13l.79,1.58-1.65.56-3.87,1.32h6.08v21.05h-11.16v-1.88c-.76.4-1.61.75-2.59,1.03-2.14.62-4.86.93-8.63.93-8.12,0-13.77-1.6-17.41-4.6-3.71-3.06-5.07-7.37-5.07-12.12,0-6,2.65-10.45,6.82-13.34,4.11-2.84,9.61-4.13,15.4-4.13ZM64.17,60.77c-4.19,0-6.35.76-7.47,1.71-1.03.87-1.43,2.14-1.43,4.04,0,1.73.35,2.84,1.32,3.62.5.4,1.22.76,2.26,1.04v-9.17h12.92c-1.39-.69-3.71-1.24-7.6-1.24Z"/>
          <path class="cls-3" d="M33.26,48.96c8.06,0,13.73,1.38,17.41,4.03,3.78,2.73,5.24,6.63,5.24,11.06v1.5h-13.29l-.18-1.25s0-.02-.01-.05c-.02-.06-.06-.18-.13-.33-.14-.3-.42-.75-.97-1.23-1.08-.94-3.38-2.13-8.16-2.13-4.16,0-6.23.82-7.26,1.73-.97.85-1.29,2.01-1.29,3.48,0,1.57.44,2.77,1.5,3.63,1.14.92,3.24,1.66,7.05,1.66,5.17,0,7.47-1.03,8.46-1.79.48-.37.67-.7.75-.87.03-.07.05-.13.05-.15l.03-1.4h13.46v1.5c0,3.8-1.18,7.48-4.8,10.15-3.52,2.59-9.13,4.04-17.59,4.04s-13.71-1.19-17.37-3.96c-3.78-2.86-5.11-7.15-5.11-12.46,0-6.13,1.95-10.57,5.96-13.39,3.89-2.74,9.45-3.76,16.26-3.76Z"/>
          <rect x="69.55" y="60.36" width="11.29" height="2.89"/>
          <path d="M77.57,68.32h-17.36l.11,4.83c2.23.28,4.94.43,8.01.24,3.67-.23,6.8-.9,9.24-1.61v-3.46Z"/>
          <rect x="74.22" y="82.8" width="8.62" height="1.81"/>
          <path class="cls-1" d="M35.87,61.8c-3.43-.88-8.39-.32-9.52,2.41-.45,1.1-.28,2.55.45,3.58,2.9,4.09,14.76,1.63,15.24-1.36.28-1.77-3.4-3.91-6.17-4.63Z"/>
        </g>
        <text class="cls-4" transform="translate(11.74 93.43) scale(.97 1)"><tspan x="0" y="0">UX &amp; G</tspan><tspan class="cls-7" x="40.24" y="0">R</tspan><tspan class="cls-8" x="46.71" y="0">A</tspan><tspan x="54.93" y="0">P</tspan><tspan class="cls-11" x="61.72" y="0">H</tspan><tspan class="cls-9" x="69.38" y="0">I</tspan><tspan x="71.72" y="0">C </tspan><tspan class="cls-8" x="83.58" y="0">DE</tspan><tspan class="cls-10" x="97.44" y="0">S</tspan><tspan class="cls-12" x="105.04" y="0">I</tspan><tspan x="107.51" y="0">NG</tspan></text>
        <text class="cls-6" transform="translate(49.37 101.32) scale(.99 1)"><tspan x="0" y="0">PHOTOGRAPHY</tspan></text>
      </g>
    </g>
  </g>
</svg>