<svg width="211" height="123" viewBox="0 0 211 123" fill="none" xmlns="http://www.w3.org/2000/svg">
<path d="M39.0922 26.9186C37.8436 26.6371 36.5548 26.9699 35.2261 27.9169C33.8973 28.8639 32.616 30.1824 31.3822 31.8725C30.1484 33.5626 28.9832 35.5305 27.8865 37.7763C26.8663 39.9738 25.9952 42.2377 25.2731 44.5679C24.712 46.4752 24.2898 48.3482 24.0066 50.1869C23.7858 52.0397 23.7391 53.7022 23.8665 55.1742C23.994 56.6463 24.3408 57.8725 24.9071 58.853C25.5357 59.8476 26.412 60.4716 27.5358 60.7249C29.0342 61.0626 30.461 60.9906 31.8161 60.5088C33.2336 60.041 34.5927 59.3961 35.8933 58.574C37.2704 57.7035 38.575 56.7182 39.807 55.6182C41.1015 54.5323 42.399 53.5782 43.6997 52.7561C45.0143 51.8715 46.3492 51.1883 47.7043 50.7065C49.0595 50.2247 50.455 50.1456 51.891 50.4693C53.8264 50.9055 55.1973 52.1002 56.0035 54.0533C56.8722 56.0205 57.2678 58.3402 57.1903 61.0126C57.1128 63.685 56.6114 66.4914 55.6862 69.4319C54.775 72.31 53.5315 74.9164 51.9556 77.251C50.3797 79.5856 48.5276 81.3987 46.3995 82.6904C44.3339 83.9961 42.0524 84.3675 39.555 83.8046C38.119 83.481 36.8581 82.6719 35.7721 81.3774C34.6862 80.083 33.8799 78.1299 33.3533 75.5181C31.8856 76.4994 30.1752 77.3932 28.2221 78.1995C26.3174 79.0823 24.1164 79.2422 21.619 78.6793C17.873 77.8349 14.9 76.1807 12.7 73.7166C10.4999 71.2526 8.93307 68.308 7.99937 64.8828C7.07973 61.3952 6.72686 57.5762 6.94075 53.4256C7.15464 49.2751 7.83372 45.0982 8.97797 40.8949C10.2207 36.2546 11.9489 31.7893 14.1624 27.499C16.3901 23.1463 18.9422 19.3916 21.8187 16.2349C24.7717 13.0298 27.9687 10.6341 31.4097 9.04793C34.8507 7.46174 38.3818 7.07676 42.003 7.89298C43.2516 8.17444 44.3473 8.55262 45.29 9.02752C46.2467 9.43999 47.0644 9.88674 47.7433 10.3678C48.4986 10.8005 49.1221 11.2362 49.6136 11.675C50.1817 12.0655 50.6459 12.3342 51.0065 12.481C52.5788 11.3265 54.0074 10.6644 55.2921 10.4948C56.6534 10.2768 57.8335 10.2803 58.8324 10.5055C61.3922 11.0825 63.3773 12.3172 64.7877 14.2097C66.2121 16.0397 67.2088 18.1669 67.7776 20.5913C68.4229 22.9674 68.6827 25.4533 68.5568 28.0492C68.4933 30.6591 68.2224 33.0254 67.7439 35.1482C67.2936 37.146 66.6388 39.0322 65.7796 40.8067C64.9828 42.5953 64.0097 44.1473 62.8603 45.4628C61.725 46.7158 60.4345 47.6386 58.9888 48.2312C57.6056 48.8379 56.0711 48.9513 54.3854 48.5713C52.8245 48.2195 51.5425 47.5041 50.5392 46.4251C49.5499 45.2836 48.7036 43.9447 48.0002 42.4085C47.3592 40.8863 46.7636 39.3087 46.2132 37.6757C45.7393 35.9943 45.1818 34.3926 44.5409 32.8704C43.9623 31.3622 43.2338 30.0827 42.3554 29.0319C41.4911 27.9185 40.4033 27.2141 39.0922 26.9186ZM27.0081 63.0661C25.3848 62.7002 24.1168 61.9224 23.2041 60.7326C22.2914 59.5428 21.6675 58.09 21.3326 56.3744C21.0117 54.5963 20.9516 52.6802 21.1522 50.626C21.3668 48.5094 21.7899 46.3414 22.4214 44.1219C23.1514 41.4654 24.0929 38.8894 25.2459 36.3939C26.4753 33.8499 27.8288 31.6292 29.3062 29.7316C30.846 27.8481 32.4193 26.3986 34.0259 25.383C35.695 24.3815 37.3411 24.0637 38.9644 24.4296C40.7126 24.8236 42.1437 25.6054 43.2578 26.775C44.3859 27.8822 45.3017 29.2039 46.0051 30.7402C46.7085 32.2765 47.3284 33.8923 47.8647 35.5877C48.4151 37.2207 48.9483 38.7842 49.4645 40.2783C49.9806 41.7724 50.6084 43.062 51.3478 44.1471C52.1014 45.1699 53.0713 45.8149 54.2575 46.0823C55.5686 46.3778 56.7699 46.2877 57.8612 45.8121C58.9665 45.274 59.9651 44.4821 60.8568 43.4366C61.825 42.3428 62.6482 41.0194 63.3262 39.4665C64.0043 37.9136 64.5403 36.263 64.9344 34.5149C65.441 32.2673 65.6979 29.9634 65.705 27.6032C65.7887 25.1946 65.5663 22.9795 65.0379 20.9579C64.5861 18.8878 63.8 17.1361 62.6798 15.7027C61.5736 14.2069 60.1153 13.2549 58.3047 12.8468C57.3057 12.6216 56.181 12.6633 54.9306 12.9719C53.7426 13.2946 52.3896 14.2033 50.8718 15.6982L49.8416 15.466C49.4064 14.7774 48.4998 13.8514 47.1219 12.6879C45.744 11.5245 43.8688 10.6754 41.4964 10.1406C38.4371 9.45102 35.3884 9.87912 32.3501 11.4249C29.3118 12.9706 26.4692 15.2493 23.8222 18.261C21.2376 21.2867 18.8979 24.8269 16.8031 28.8815C14.7083 32.9361 13.0676 37.1587 11.8811 41.5493C10.8072 45.4404 10.0978 49.3152 9.75295 53.1738C9.48455 56.9841 9.71345 60.48 10.4396 63.6615C11.2283 66.8571 12.5494 69.5823 14.4029 71.8371C16.333 74.0435 18.9213 75.5126 22.1679 76.2444C23.3541 76.5118 24.5272 76.5466 25.6871 76.3488C26.8329 76.2134 27.9132 75.9321 28.928 75.5047C30.0052 75.0915 30.9716 74.5877 31.8273 73.9933C32.7454 73.4129 33.4933 72.8599 34.071 72.334L35.1012 72.5662C35.939 77.8723 37.6377 80.8138 40.1975 81.3908C42.0081 81.7989 43.7378 81.4016 45.3866 80.1987C47.0214 79.0582 48.4597 77.4799 49.7014 75.4636C51.0056 73.4613 52.0711 71.2085 52.8978 68.705C53.7245 66.2015 54.2281 63.822 54.4085 61.5664C54.6513 59.325 54.4975 57.3878 53.9471 55.7548C53.4108 54.0593 52.4558 53.0568 51.0823 52.7472C49.5214 52.3954 47.8783 52.8451 46.153 54.0963C44.4276 55.3476 42.5734 56.7338 40.5904 58.255C38.6074 59.7762 36.5035 61.1061 34.2786 62.2447C32.0538 63.3834 29.6303 63.6572 27.0081 63.0661ZM75.6864 70.5942C76.1876 70.1167 76.9154 69.3622 77.8695 68.3308C78.8237 67.2994 79.9691 66.147 81.3058 64.8738C82.7049 63.6146 84.2047 62.3453 85.8052 61.066C87.4822 59.7382 89.2489 58.5947 91.1052 57.6354C93.024 56.6902 94.9802 56.0158 96.9737 55.6123C98.9813 55.1464 101.015 55.1456 103.076 55.61C105.635 56.187 107.456 57.7127 108.539 60.1873C109.684 62.6759 110.241 65.5897 110.21 68.9286C110.255 72.2192 109.762 75.7164 108.73 79.4202C107.713 83.0615 106.377 86.3687 104.723 89.3417C103.145 92.2664 101.274 94.6001 99.1098 96.3429C97.0081 98.0997 94.8022 98.7178 92.4922 98.1971C90.9313 97.8453 89.7812 97.1268 89.0417 96.0416C88.2881 95.0189 87.8406 93.8027 87.6991 92.3931C87.6059 91.06 87.7212 89.6755 88.0449 88.2395C88.431 86.8176 88.8826 85.5417 89.3997 84.4117C88.1334 85.3728 86.9678 86.3238 85.9028 87.2646C84.9144 88.1571 83.8292 88.8966 82.6473 89.4831C81.4514 90.132 80.1103 90.5514 78.6242 90.7412C77.1381 90.9311 75.3024 90.7798 73.1172 90.2872C69.1215 89.3866 65.9511 87.5894 63.606 84.8959C61.3233 82.2163 59.7503 79.0079 58.8869 75.2706C58.0236 71.5333 57.7894 67.4786 58.1845 63.1064C58.5312 58.6578 59.4297 54.2351 60.8799 49.8384C62.2678 45.4276 64.0645 41.2402 66.2701 37.2762C68.5523 33.2638 71.1347 29.8111 74.0174 26.9182C76.9 24.0253 79.9783 21.8653 83.2522 20.4382C86.5886 19.0253 90.0049 18.7128 93.5012 19.5009C94.7499 19.7824 95.8455 20.1606 96.7882 20.6355C97.7449 21.0479 98.5627 21.4947 99.2415 21.9757C99.9969 22.4084 100.62 22.8441 101.112 23.283C101.68 23.6734 102.144 23.9421 102.505 24.089C104.077 22.9345 105.506 22.2724 106.79 22.1027C108.152 21.8847 109.332 21.8883 110.331 22.1134C112.89 22.6904 114.883 23.8939 116.307 25.7239C117.731 27.554 118.728 29.6812 119.297 32.1056C119.942 34.4816 120.209 36.9364 120.097 39.4698C120.048 42.0173 119.798 44.29 119.348 46.2878C118.391 50.5333 116.997 53.3683 115.167 54.7928C113.351 56.1548 111.163 56.5473 108.604 55.9703C106.918 55.5904 105.459 54.9334 104.226 53.9995C103.055 53.0796 102.014 52.0248 101.101 50.835C100.251 49.6592 99.453 48.3969 98.7074 47.0479C98.0242 45.713 97.2887 44.4647 96.5008 43.3031C95.7754 42.1555 94.9211 41.1428 93.9381 40.2652C93.0174 39.4016 91.9016 38.8221 90.5904 38.5265C88.9672 38.1606 87.463 38.5761 86.078 39.7728C84.6929 40.9695 83.4349 42.6213 82.304 44.7282C81.173 46.8351 80.1801 49.2027 79.3252 51.8311C78.5328 54.4735 77.8551 57.0434 77.2922 59.5407C76.7293 62.0381 76.3163 64.3068 76.0533 66.3469C75.7903 68.387 75.668 69.8027 75.6864 70.5942ZM72.9295 73.2202C72.9269 71.7763 73.0752 69.8088 73.3743 67.3176C73.6875 64.7639 74.1365 62.0441 74.7214 59.1581C75.3829 56.2237 76.1762 53.2863 77.1014 50.3457C78.0891 47.4193 79.2319 44.823 80.53 42.557C81.828 40.291 83.3085 38.5253 84.9714 37.26C86.6344 35.9947 88.4648 35.5872 90.4626 36.0375C92.2108 36.4315 93.67 37.0885 94.8404 38.0084C96.0732 38.9423 97.1148 39.9971 97.965 41.1729C98.8778 42.3627 99.6757 43.6251 100.359 44.96C101.042 46.2948 101.746 47.5361 102.472 48.6837C103.26 49.8454 104.114 50.858 105.035 51.7216C105.955 52.5851 107.071 53.1647 108.382 53.4602C110.38 53.9105 112.005 53.6864 113.257 52.7877C114.586 51.8407 115.645 49.6191 116.433 46.1228C116.939 43.8752 117.196 41.5713 117.203 39.2111C117.287 36.8026 117.065 34.5875 116.536 32.5658C116.084 30.4958 115.298 28.744 114.178 27.3106C113.072 25.8148 111.613 24.8628 109.803 24.4547C108.804 24.2295 107.679 24.2713 106.429 24.5799C105.241 24.9025 103.888 25.8113 102.37 27.3061L101.34 27.0739C100.905 26.3853 99.998 25.4593 98.6201 24.2959C97.2422 23.1324 95.367 22.2833 92.9946 21.7485C90.1226 21.1012 87.2511 21.4708 84.3799 22.8574C81.5087 24.244 78.816 26.2941 76.3018 29.0077C73.7876 31.7212 71.48 34.9734 69.379 38.7642C67.2921 42.4926 65.5587 46.399 64.1788 50.4836C62.7989 54.5681 61.8701 58.6887 61.3924 62.8454C60.9288 66.9397 61.0007 70.6954 61.6082 74.1126C62.2781 77.5439 63.5811 80.4947 65.5173 82.9649C67.4536 85.4351 70.1698 87.0642 73.6661 87.8523C75.8513 88.3449 78.0039 88.1084 80.1241 87.143C82.2302 86.24 84.2576 84.9584 86.2064 83.2983C88.1551 81.6382 90.0142 79.7938 91.7835 77.7652C93.567 75.6742 95.2145 73.7494 96.7262 71.9908L98.7839 73.3402L94.5455 80.356C94.1128 81.1113 93.4879 82.2826 92.6709 83.8698C91.868 85.3945 91.2212 86.9545 90.7304 88.5496C90.3021 90.1588 90.2281 91.6511 90.5086 93.0264C90.789 94.4017 91.7721 95.2794 93.4578 95.6593C94.9562 95.9971 96.5096 95.3632 98.1181 93.7575C99.7265 92.1519 101.191 90.0217 102.511 87.367C103.893 84.7264 105.044 81.8039 105.963 78.5996C106.945 75.4093 107.502 72.3531 107.636 69.4311C107.77 66.509 107.392 63.9636 106.503 61.7951C105.615 59.6266 104.046 58.289 101.799 57.7824C100.113 57.4024 98.3982 57.4423 96.6544 57.9021C94.9106 58.362 93.18 59.0544 91.4626 59.9794C89.7451 60.9044 88.0479 62.0307 86.3709 63.3585C84.7704 64.6379 83.2636 65.9383 81.8504 67.26C80.4513 68.5191 79.1911 69.744 78.0699 70.9346C76.9486 72.1252 76.0156 73.063 75.2707 73.748L72.9295 73.2202ZM142.486 80.534C141.414 81.8011 140.16 83.2897 138.724 85C137.303 86.6479 135.778 88.1739 134.15 89.5782C132.521 90.9824 130.793 92.1017 128.964 92.9362C127.199 93.7847 125.348 93.9908 123.413 93.5545C120.228 92.8368 118.026 91.2578 116.804 88.8175C115.597 86.3148 115.366 83.409 116.112 80.1C116.774 77.1656 117.709 74.3258 118.918 71.5805C120.128 68.8352 121.455 66.1493 122.9 63.5227C124.407 60.9102 125.938 58.336 127.494 55.8C129.064 53.2016 130.564 50.6203 131.995 48.0562C131.119 48.4492 130.14 48.7204 129.056 48.8699C127.973 49.0193 126.838 48.9603 125.652 48.6929C124.216 48.3693 122.968 47.7928 121.909 46.9635C120.925 46.0858 120.134 45.0873 119.533 43.9678C119.009 42.8 118.7 41.5496 118.607 40.2165C118.452 38.8693 118.529 37.5089 118.838 36.1354C119.19 34.5745 119.816 33.1082 120.716 31.7365C121.553 30.3507 122.667 29.1913 124.058 28.2584C125.463 27.263 127.093 26.5807 128.948 26.2115C130.865 25.8563 133.01 25.9461 135.382 26.4809C137.692 27.0016 139.824 27.8758 141.778 29.1034C143.732 30.3311 145.366 31.8147 146.679 33.5541C148.055 35.3076 149.018 37.2959 149.566 39.5189C150.115 41.742 150.115 44.0709 149.566 46.5058C149.186 48.1916 148.637 49.6095 147.918 50.7597C148.601 50.0606 149.816 48.8911 151.563 47.2512C153.31 45.6113 155.346 44.0035 157.669 42.4278C160.069 40.8037 162.6 39.4716 165.262 38.4315C167.924 37.3914 170.503 37.1527 173 37.7157C174.624 38.0815 175.91 38.6338 176.859 39.3725C177.87 40.1253 178.596 40.9779 179.037 41.9303C179.541 42.8967 179.791 43.97 179.788 45.1501C179.798 46.2677 179.67 47.4197 179.403 48.6059C179.057 50.4306 178.423 52.2231 177.502 53.9835C176.642 55.758 175.839 57.2828 175.093 58.5578C175.532 58.0663 176.252 57.3431 177.255 56.3881C178.271 55.3708 179.441 54.2567 180.764 53.0459C182.149 51.8491 183.666 50.6493 185.314 49.4464C186.977 48.1811 188.699 47.093 190.479 46.1821C192.258 45.2712 194.02 44.5858 195.764 44.126C197.57 43.6802 199.316 43.6473 201.002 44.0273C202.126 44.2806 203.183 44.683 204.174 45.2344C205.179 45.7234 206.003 46.4339 206.646 47.3661C207.365 48.2499 207.848 49.3099 208.094 50.5463C208.34 51.7827 208.273 53.2438 207.893 54.9295C207.513 56.6152 206.636 58.6152 205.262 60.9296C203.949 63.2581 202.391 65.6622 200.585 68.1419C198.856 70.5732 196.988 73.0388 194.982 75.5388C193.051 77.9903 191.226 80.2686 189.505 82.3737C187.86 84.4305 186.449 86.179 185.272 87.6193C184.094 89.0596 183.456 89.9983 183.358 90.4354C185.735 89.2 187.986 88.8215 190.108 89.3C192.543 89.8488 194.171 91.0686 194.991 92.9592C195.874 94.864 196.048 97.0026 195.513 99.3751C194.993 101.685 193.899 104.063 192.233 106.508C190.566 108.954 188.449 111.068 185.882 112.851C183.301 114.697 180.312 116.024 176.915 116.833C173.504 117.704 169.801 117.689 165.805 116.789C164.307 116.451 162.858 115.895 161.458 115.12C160.12 114.359 158.933 113.37 157.895 112.152C156.92 110.948 156.227 109.513 155.815 107.845C155.39 106.24 155.409 104.408 155.874 102.347C156.197 100.912 156.621 99.7605 157.144 98.8943C157.681 97.9658 158.212 97.0684 158.735 96.2023C157.579 97.2539 156.195 98.1556 154.582 98.9074C152.97 99.6592 151.071 99.7888 148.885 99.2962C146.076 98.6629 144.061 97.1262 142.839 94.6859C141.694 92.1973 141.526 89.3055 142.334 86.0106C142.954 83.2635 143.837 80.5103 144.983 77.7509L142.486 80.534ZM172.192 39.9936C170.506 39.6136 168.708 39.7331 166.797 40.3521C164.886 40.9711 162.905 41.9022 160.853 43.1455C158.816 44.3264 156.76 45.7328 154.687 47.3648C152.675 49.0108 150.72 50.7022 148.819 52.4388C146.919 54.1755 145.133 55.8396 143.462 57.4311C141.791 59.0227 140.309 60.3614 139.014 61.4473L137.947 59.6323L139.336 58.2724C142.171 55.303 144.028 52.7367 144.91 50.5735C145.853 48.4244 146.445 46.8192 146.684 45.7578C147.148 43.6975 147.134 41.726 146.639 39.8433C146.159 37.8981 145.373 36.1464 144.281 34.5881C143.189 33.0298 141.846 31.7103 140.253 30.6295C138.722 29.5627 137.083 28.8324 135.335 28.4383C133.399 28.0021 131.636 27.9655 130.045 28.3286C128.531 28.6433 127.186 29.2258 126.01 30.0761C124.897 30.9404 123.974 31.9789 123.241 33.1915C122.509 34.4041 121.995 35.666 121.699 36.9771C121.165 39.3495 121.321 41.4187 122.17 43.1845C123.081 44.9643 124.504 46.0724 126.439 46.5086C127.688 46.7901 128.966 46.6517 130.273 46.0933C131.642 45.5491 132.967 44.7652 134.247 43.7417L137.15 44.3961L130.355 56.6417C129.357 58.4505 128.289 60.2764 127.152 62.1195C126.029 63.9001 124.955 65.7572 123.928 67.6909C122.916 69.5621 121.976 71.5481 121.109 73.6488C120.242 75.7496 119.534 78.0174 118.985 80.4523C118.76 81.4513 118.646 82.5408 118.642 83.7209C118.653 84.8385 118.809 85.8907 119.111 86.8773C119.414 87.864 119.901 88.761 120.572 89.5682C121.319 90.3272 122.286 90.8403 123.472 91.1077C125.47 91.558 127.31 91.2512 128.994 90.1873C130.677 89.1234 132.131 87.9095 133.357 86.5457L152.09 65.8707L153.395 67.9364L153.51 67.8639C153.496 67.9263 153.451 67.9817 153.374 68.03L153.541 68.1659L152.882 68.9032C152.464 69.5961 151.895 70.5177 151.177 71.6678C150.535 72.7696 149.819 74.0517 149.03 75.514C148.304 76.9904 147.567 78.6612 146.818 80.5263C146.146 82.343 145.578 84.2815 145.114 86.3418C144.888 87.3407 144.774 88.4302 144.771 89.6103C144.781 90.728 144.938 91.7802 145.24 92.7668C145.542 93.7535 146.029 94.6504 146.7 95.4577C147.447 96.2166 148.414 96.7298 149.6 96.9972C151.598 97.4475 153.439 97.1407 155.122 96.0768C156.868 95.0269 158.353 93.8201 159.579 92.4562L178.218 71.7602L179.669 74.0554L168.615 86.4234C166.602 88.6595 164.64 91.104 162.73 93.757C160.834 96.3475 159.556 99.1099 158.894 102.044C158.486 103.855 158.391 105.441 158.609 106.802C158.875 108.24 159.354 109.463 160.045 110.472C160.785 111.557 161.705 112.42 162.807 113.062C163.971 113.718 165.24 114.201 166.614 114.511C169.923 115.257 173.05 115.207 175.996 114.362C179.004 113.531 181.653 112.259 183.942 110.544C186.294 108.844 188.212 106.881 189.697 104.658C191.245 102.448 192.237 100.375 192.673 98.4397C193.053 96.754 192.957 95.289 192.385 94.0447C191.827 92.7379 190.736 91.9016 189.112 91.5357C188.051 91.2965 186.933 91.307 185.759 91.5672C184.648 91.8415 183.571 92.2547 182.528 92.8069C181.485 93.3591 180.521 93.9948 179.638 94.7141C178.754 95.4334 178.009 96.1184 177.403 96.7691L178.311 92.7421C179.106 91.5436 180.235 90.0267 181.698 88.1916C183.238 86.3081 184.921 84.2272 186.747 81.9489C188.635 79.6846 190.582 77.3025 192.589 74.8026C194.596 72.3027 196.464 69.8371 198.193 67.4057C199.921 64.9744 201.404 62.6187 202.639 60.3386C203.937 58.0725 204.79 56.0342 205.199 54.2237C205.733 51.8512 205.544 50.07 204.632 48.8802C203.733 47.628 202.441 46.8119 200.755 46.4319C199.069 46.0519 197.233 46.1956 195.246 46.8629C193.258 47.5303 191.193 48.541 189.051 49.8951C186.923 51.1868 184.77 52.7352 182.592 54.5404C180.49 56.2973 178.412 58.0924 176.359 59.9257C174.382 61.7107 172.513 63.4544 170.751 65.1567C169.067 66.8107 167.577 68.1807 166.282 69.2666L165.236 67.3579L167.555 64.9284C168.496 63.9594 169.415 62.789 170.315 61.4173C171.277 60.0596 172.16 58.6184 172.963 57.0936C173.828 55.5829 174.561 54.0753 175.163 52.5707C175.779 51.0037 176.234 49.5647 176.53 48.2536C176.98 46.2557 176.947 44.5098 176.431 43.0157C175.977 41.5357 174.564 40.5283 172.192 39.9936Z" fill="#D5FF00"/>
</svg>
