<svg width="137" height="43" viewBox="0 0 137 43" fill="none" xmlns="http://www.w3.org/2000/svg">
<path d="M21.9026 2.13176C37.792 2.13176 43.0592 7.59276 43.0592 15.7198H32.5687C32.5687 15.7198 31.8664 10.7318 21.8149 10.7318C13.2118 10.7318 11.7633 14.0858 11.7633 17.4398C11.7633 21.1808 13.9141 24.2338 21.8149 24.2338C32.4809 24.2338 32.5687 20.0198 32.5687 20.0198H43.0592C43.0592 26.9428 38.8454 32.7048 22.166 32.7048C6.23278 32.7048 1.18506 27.9318 1.18506 17.7838C1.18506 6.21676 8.47133 2.13176 21.9026 2.13176ZM62.2751 14.9458H87.3381V32.6188H79.174V29.4798C76.716 31.5008 73.8629 32.7048 66.4449 32.7048C50.5117 32.7048 45.464 26.5128 45.464 17.7838C45.464 7.03376 54.9888 2.13176 66.1816 2.13176C78.9984 2.13176 83.3877 5.31376 86.153 10.7318L76.6282 13.9138C75.3992 12.1938 72.59 10.7318 66.0938 10.7318C57.4907 10.7318 55.6911 13.7418 55.6911 17.8698C55.6911 21.6538 57.2713 24.4918 66.0938 24.4918C72.4583 24.4918 73.6434 23.2878 74.9163 22.0408H62.2751V14.9458ZM115.947 32.5758H107.52L99.9702 19.3748V32.5758H89.7431V2.38976H101.901L111.865 19.1168L121.873 2.38976H134.075V32.5758H123.892V19.2888L115.947 32.5758Z" fill="#D5FF00"/>
<path d="M7.84496 41.697C6.33663 41.697 5.05175 41.4781 4.59686 40.6181C4.26966 40.0082 4.20581 39.2264 4.20581 37.5299V36.2086H6.16903C6.16903 36.2086 6.16903 37.999 6.16903 38.6635C6.16903 39.3359 6.32865 40.1959 7.84496 40.1959C9.36127 40.1959 9.473 39.3359 9.473 38.6635C9.473 37.999 9.473 36.2086 9.473 36.2086H11.4362V37.5299C11.4362 39.2264 11.3724 40.0082 11.0452 40.6181C10.5903 41.4781 9.35329 41.697 7.84496 41.697ZM20.2782 36.2086L17.7324 38.9528L20.2542 41.697H17.7483L16.2879 40.1412L14.8195 41.697H12.3136L14.8594 38.9528L12.3375 36.2086H14.8434L16.2959 37.7722L17.7723 36.2086H20.2782ZM33.433 39.1873C33.433 39.1873 33.0419 39.9301 32.0922 40.6102L33.433 41.697H31.2144L30.7275 41.3217C30.1051 41.5484 29.3469 41.697 28.4611 41.697C25.205 41.697 24.1994 39.4766 27.0645 38.5306C25.8913 37.9052 25.5003 36.2242 28.7723 36.2242C30.1769 36.2242 30.8473 36.6308 30.8632 37.3501C30.8632 37.9521 30.3205 38.3352 29.6661 38.6401L30.9749 39.7033C31.1425 39.5548 31.2942 39.3828 31.4059 39.1873C32.9062 39.1873 33.433 39.1873 33.433 39.1873ZM29.0995 37.3892C29.0995 37.1077 28.0062 37.0764 28.0062 37.4361C28.0062 37.6472 28.5249 37.9052 28.5249 37.9052C28.5249 37.9052 29.0995 37.6706 29.0995 37.3892ZM27.4236 39.9613C27.4236 40.407 28.4611 40.5946 29.5065 40.3757L28.1019 39.2968C27.7029 39.4844 27.4236 39.6877 27.4236 39.9613ZM41.5976 38.4915H46.1545V41.7048H44.6702V41.1341C44.2232 41.5015 43.7045 41.7204 42.3558 41.7204C39.4588 41.7204 38.5411 40.5946 38.5411 39.0075C38.5411 37.053 40.2729 36.1617 42.3079 36.1617C44.6382 36.1617 45.4363 36.7402 45.9391 37.7253L44.2073 38.3039C43.9838 37.9912 43.4731 37.7253 42.2919 37.7253C40.7278 37.7253 40.4005 38.2726 40.4005 39.0232C40.4005 39.7112 40.6879 40.2272 42.2919 40.2272C43.4491 40.2272 43.6646 40.0082 43.896 39.7815H41.5976V38.4915ZM47.0307 36.2086H51.1407C51.6754 36.2086 53.5588 36.279 53.5588 38.2257C53.5588 39.2421 53.072 39.7893 52.5293 40.0786L53.6705 41.697L51.5238 41.6891L50.5741 40.3992C50.0394 40.3992 49.2014 40.3992 48.8902 40.3992V41.697H47.0307V36.2086ZM50.9651 38.7964C51.2365 38.7964 51.6594 38.7417 51.6594 38.2882C51.6594 37.827 51.1806 37.8113 50.9412 37.8113C50.6938 37.8113 48.8902 37.8113 48.8902 37.8113V38.7964C48.8902 38.7964 50.7018 38.7964 50.9651 38.7964ZM59.3572 36.2242L61.8631 41.697H59.7084L59.2934 40.7822H56.5241L56.1012 41.697H53.9544L56.4683 36.2242H59.3572ZM57.1865 39.1952H58.623L57.9048 37.7644L57.1865 39.1952ZM62.5682 36.2086H66.4947C67.0294 36.2086 68.9128 36.279 68.9128 38.3195C68.9128 40.3522 67.1411 40.5868 66.5585 40.5868C66.1036 40.5868 64.8906 40.5868 64.4277 40.5868V41.697H62.5682V36.2086ZM66.4388 38.9684C66.7261 38.9684 67.173 38.9059 67.173 38.3742C67.173 37.8426 66.6702 37.827 66.4069 37.827C66.1435 37.827 64.4277 37.827 64.4277 37.827V38.9684C64.4277 38.9684 66.1515 38.9684 66.4388 38.9684ZM74.9828 36.2164H76.8343V41.697H74.9828V39.7893H71.6469V41.697H69.7875V36.2164H71.6469V38.1162H74.9828V36.2164ZM77.9435 41.697V36.2164H79.8029V41.697H77.9435ZM84.4236 36.1617C87.3125 36.1617 88.2702 37.1546 88.2702 38.6322H86.3629C86.3629 38.6322 86.2352 37.7253 84.4076 37.7253C82.8434 37.7253 82.5801 38.3352 82.5801 38.945C82.5801 39.6252 82.9711 40.1802 84.4076 40.1802C86.3469 40.1802 86.3629 39.4141 86.3629 39.4141H88.2702C88.2702 40.6728 87.5041 41.7204 84.4715 41.7204C81.5745 41.7204 80.6567 40.8526 80.6567 39.0075C80.6567 36.9044 81.9815 36.1617 84.4236 36.1617ZM97.2195 41.697H93.3729V36.2242H97.2035C98.8316 36.2242 100.388 36.623 100.388 38.9606C100.388 41.0793 98.664 41.697 97.2195 41.697ZM97.0918 40.2115C98.0016 40.2115 98.4405 39.6564 98.4405 38.9684C98.4405 38.2882 98.0894 37.7332 97.0918 37.7332H95.2323V40.2115H97.0918ZM101.147 36.2164H107.332V37.7332H103.006V38.2179H107.053V39.6799H103.006V40.1802H107.332V41.697H101.147V36.2164ZM111.524 36.2242C114.453 36.2242 115.131 36.623 115.131 38.2101C115.131 38.2101 113.471 38.2101 113.152 38.2101C113.152 37.9286 113.04 37.7644 111.572 37.7644C110.151 37.7644 110.031 37.827 110.031 38.0302C110.047 38.1788 110.151 38.1866 111.556 38.2961C114.66 38.5462 115.331 38.5853 115.331 40.0004C115.331 41.4077 114.788 41.697 111.58 41.697C108.627 41.697 108.172 41.4155 108.172 39.8128C108.172 39.8128 109.856 39.8128 110.095 39.8128C110.095 40.1412 110.231 40.2193 111.659 40.2193C113.008 40.2193 113.16 40.2272 113.16 39.977C113.16 39.805 112.992 39.8362 111.524 39.719C109.249 39.5392 108.092 39.4297 108.092 38.0146C108.092 36.3884 109.058 36.2242 111.524 36.2242ZM116.186 41.697V36.2164H118.045V41.697H116.186ZM126.166 41.697H123.628L120.883 38.3899V41.697H119.024V36.2086H121.609L124.307 39.461V36.2086H126.166V41.697ZM130.102 38.4915H134.659V41.7048H133.175V41.1341C132.728 41.5015 132.209 41.7204 130.86 41.7204C127.964 41.7204 127.046 40.5946 127.046 39.0075C127.046 37.053 128.778 36.1617 130.813 36.1617C133.143 36.1617 133.941 36.7402 134.444 37.7253L132.712 38.3039C132.488 37.9912 131.978 37.7253 130.797 37.7253C129.232 37.7253 128.905 38.2726 128.905 39.0232C128.905 39.7112 129.193 40.2272 130.797 40.2272C131.954 40.2272 132.169 40.0082 132.401 39.7815H130.102V38.4915Z" fill="#D5FF00"/>
</svg>
