<svg width="274" height="59" viewBox="0 0 274 59" fill="none" xmlns="http://www.w3.org/2000/svg">
<path d="M4.60803 48.5759C4.60803 46.7839 4.7787 44.8639 5.12003 42.8159C5.50403 40.7679 5.9307 38.8052 6.40003 36.9279C6.91203 35.0079 7.4027 33.2799 7.87203 31.7439C8.38403 30.2079 8.76803 29.0346 9.02403 28.2239C8.2987 28.6506 7.5307 28.8639 6.72003 28.8639C5.56803 28.8639 4.56536 28.6719 3.71203 28.2879C2.90136 27.8612 2.2187 27.3279 1.66403 26.6879C1.10936 26.0052 0.704029 25.2159 0.448029 24.3199C0.149363 23.4239 2.92063e-05 22.5066 2.92063e-05 21.5679C2.92063e-05 20.3732 0.234696 19.1786 0.704029 17.9839C1.1307 16.7892 1.7707 15.7226 2.62403 14.7839C3.47736 13.8026 4.54403 13.0132 5.82403 12.4159C7.1467 11.8186 8.66136 11.5199 10.368 11.5199C12.928 11.5199 14.9334 12.3092 16.384 13.8879C17.8347 15.4666 18.6667 17.4719 18.88 19.9039C19.52 18.7092 20.2027 17.5999 20.928 16.5759C21.6534 15.5092 22.4427 14.5919 23.296 13.8239C24.1494 13.0132 25.088 12.3732 26.112 11.9039C27.136 11.4346 28.2667 11.1999 29.504 11.1999C32.4054 11.1999 34.6667 11.8826 36.288 13.2479C37.952 14.6132 39.104 16.4052 39.744 18.6239C40.384 20.8426 40.5334 23.3812 40.192 26.2399C39.8934 29.0559 39.232 31.9359 38.208 34.8799C37.184 37.8239 35.8187 40.7252 34.112 43.5839C32.448 46.3999 30.5494 48.9172 28.416 51.1359C26.2827 53.3546 23.9787 55.1466 21.504 56.5119C19.072 57.8772 16.5334 58.5599 13.888 58.5599C11.2 58.5599 8.98136 57.7919 7.23203 56.2559C5.4827 54.7199 4.60803 52.1599 4.60803 48.5759ZM29.952 12.7999C28.5867 12.7999 27.328 13.0772 26.176 13.6319C25.0667 14.1866 23.9787 15.1039 22.912 16.3839C21.8454 17.6212 20.7574 19.2212 19.648 21.1839C18.5814 23.1466 17.408 25.5359 16.128 28.3519L14.912 27.9039L16.384 24.8319C17.024 23.4666 17.344 22.0799 17.344 20.6719C17.344 19.2639 17.0454 17.9839 16.448 16.8319C15.8934 15.6372 15.0827 14.6772 14.016 13.9519C12.992 13.1839 11.7334 12.7999 10.24 12.7999C8.8747 12.7999 7.6587 13.0772 6.59203 13.6319C5.56803 14.1439 4.69336 14.8479 3.96803 15.7439C3.28536 16.5972 2.77336 17.5572 2.43203 18.6239C2.0907 19.6479 1.92003 20.6719 1.92003 21.6959C1.92003 23.1892 2.2827 24.5119 3.00803 25.6639C3.77603 26.7732 4.9067 27.3279 6.40003 27.3279C7.4667 27.3279 8.32003 27.0719 8.96003 26.5599C9.6427 26.0052 10.2187 25.1519 10.688 23.9999L11.584 21.8239L13.12 22.2719C12.864 23.1679 12.3734 24.6186 11.648 26.6239C10.9227 28.6292 10.176 30.8906 9.40803 33.4079C8.64003 35.8826 7.95736 38.4639 7.36003 41.1519C6.80536 43.7972 6.52803 46.2292 6.52803 48.4479C6.52803 49.9839 6.72003 51.2852 7.10403 52.3519C7.48803 53.3759 8.02136 54.2079 8.70403 54.8479C9.3867 55.4879 10.176 55.9572 11.072 56.2559C11.968 56.5119 12.9494 56.6399 14.016 56.6399C16.4054 56.6399 18.7307 56.0212 20.992 54.7839C23.2534 53.5039 25.344 51.8399 27.264 49.7919C29.2267 47.7012 30.976 45.3546 32.512 42.7519C34.048 40.1066 35.3067 37.4186 36.288 34.6879C37.312 31.9572 37.9947 29.2906 38.336 26.6879C38.6774 24.0426 38.6134 21.6959 38.144 19.6479C37.7174 17.5999 36.8427 15.9572 35.52 14.7199C34.1974 13.4399 32.3414 12.7999 29.952 12.7999ZM27.648 21.8879H29.824L18.496 47.8079L16.384 47.6799L27.648 21.8879ZM47.73 16.7679V51.6479C47.73 52.7999 47.9647 53.6106 48.434 54.0799C48.946 54.5066 49.5007 54.8266 50.098 55.0399C50.738 55.2106 51.2927 55.3599 51.762 55.4879C52.274 55.6159 52.53 55.9359 52.53 56.4479C52.53 56.6612 52.4447 56.8532 52.274 57.0239C52.1034 57.1946 51.8687 57.2586 51.57 57.2159C50.0767 57.0026 48.8394 56.8532 47.858 56.7679C46.9194 56.6826 46.0234 56.6399 45.17 56.6399C44.3167 56.6399 43.3994 56.6826 42.418 56.7679C41.4794 56.8532 40.2634 57.0026 38.77 57.2159C38.4714 57.2586 38.2367 57.1946 38.066 57.0239C37.938 56.8532 37.874 56.6612 37.874 56.4479C37.874 55.9359 38.1087 55.6159 38.578 55.4879C39.09 55.3599 39.6447 55.2106 40.242 55.0399C40.8394 54.8266 41.3727 54.5066 41.842 54.0799C42.354 53.6106 42.61 52.7999 42.61 51.6479V16.7679C42.61 15.6159 42.354 14.8266 41.842 14.3999C41.3727 13.9306 40.8394 13.6106 40.242 13.4399C39.6447 13.2266 39.09 13.0559 38.578 12.9279C38.1087 12.7999 37.874 12.4799 37.874 11.9679C37.874 11.7546 37.938 11.5626 38.066 11.3919C38.2367 11.2212 38.4714 11.1572 38.77 11.1999C40.2634 11.4132 41.4794 11.5626 42.418 11.6479C43.3994 11.7332 44.3167 11.7759 45.17 11.7759C46.0234 11.7759 46.9194 11.7332 47.858 11.6479C48.8394 11.5626 50.0767 11.4132 51.57 11.1999C51.8687 11.1572 52.1034 11.2212 52.274 11.3919C52.4447 11.5626 52.53 11.7546 52.53 11.9679C52.53 12.4799 52.274 12.7999 51.762 12.9279C51.2927 13.0559 50.738 13.2266 50.098 13.4399C49.5007 13.6106 48.946 13.9306 48.434 14.3999C47.9647 14.8266 47.73 15.6159 47.73 16.7679ZM44.658 3.77589C44.9567 2.66656 45.4687 1.77056 46.194 1.08789C46.9194 0.362556 47.8794 -0.000110626 49.074 -0.000110626C50.226 -0.000110626 51.0367 0.362556 51.506 1.08789C52.018 1.77056 51.89 2.53856 51.122 3.39189L46.386 8.76789C46.13 9.06656 45.8527 9.32256 45.554 9.53589C45.2554 9.74922 44.914 9.85589 44.53 9.85589C44.146 9.85589 43.826 9.77056 43.57 9.59989C43.3567 9.38656 43.2927 9.06656 43.378 8.63989L44.658 3.77589ZM68.628 55.3599C71.444 55.3599 73.7267 54.5492 75.476 52.9279C77.2254 51.2639 78.1 48.8319 78.1 45.6319C78.1 43.4559 77.5454 41.6852 76.436 40.3199C75.3694 38.9119 74.0254 37.7172 72.404 36.7359C70.8254 35.7546 69.076 34.8586 67.156 34.0479C65.2787 33.2372 63.5294 32.3412 61.908 31.3599C60.3294 30.3786 58.9854 29.2052 57.876 27.8399C56.8094 26.4746 56.276 24.7252 56.276 22.5919C56.276 20.7572 56.6174 19.1359 57.3 17.7279C57.9827 16.2772 58.9 15.0826 60.052 14.1439C61.2467 13.1626 62.612 12.4372 64.148 11.9679C65.7267 11.4559 67.412 11.1999 69.204 11.1999C70.3987 11.1999 71.7214 11.2852 73.172 11.4559C74.6654 11.6266 76.052 11.9679 77.332 12.4799C78.6547 12.9492 79.7427 13.6319 80.596 14.5279C81.492 15.3812 81.94 16.4906 81.94 17.8559C81.8974 19.0079 81.876 20.1599 81.876 21.3119C81.876 22.4212 81.876 23.5306 81.876 24.6399C81.876 24.9386 81.7907 25.1732 81.62 25.3439C81.492 25.4719 81.3214 25.5359 81.108 25.5359C80.7667 25.5359 80.468 25.2372 80.212 24.6399C79.9987 23.9999 79.7214 23.2319 79.38 22.3359C79.0814 21.3972 78.6974 20.3946 78.228 19.3279C77.8014 18.2612 77.204 17.2799 76.436 16.3839C75.668 15.4452 74.6867 14.6772 73.492 14.0799C72.34 13.4399 70.9107 13.1199 69.204 13.1199C68.1374 13.1199 67.1134 13.2692 66.132 13.5679C65.1507 13.8666 64.2974 14.3359 63.572 14.9759C62.8467 15.6159 62.2707 16.4479 61.844 17.4719C61.4174 18.4532 61.204 19.6479 61.204 21.0559C61.204 22.8052 61.7374 24.2559 62.804 25.4079C63.9134 26.5599 65.2787 27.6052 66.9 28.5439C68.5214 29.4826 70.292 30.3999 72.212 31.2959C74.132 32.1919 75.9027 33.2372 77.524 34.4319C79.1454 35.5839 80.4894 36.9919 81.556 38.6559C82.6654 40.2772 83.22 42.3252 83.22 44.7999C83.22 47.0186 82.7507 48.9172 81.812 50.4959C80.8734 52.0746 79.6574 53.3759 78.164 54.3999C76.6707 55.3812 74.964 56.1066 73.044 56.5759C71.124 57.0452 69.1614 57.2799 67.156 57.2799C65.9614 57.2799 64.6174 57.1732 63.124 56.9599C61.6734 56.7892 60.2867 56.4692 58.964 55.9999C57.684 55.4879 56.596 54.8052 55.7 53.9519C54.8467 53.0559 54.42 51.9252 54.42 50.5599C54.4627 49.4079 54.484 48.2772 54.484 47.1679C54.484 46.0586 54.484 44.9279 54.484 43.7759C54.484 43.5199 54.548 43.3066 54.676 43.1359C54.8467 42.9652 55.0387 42.8799 55.252 42.8799C55.5934 42.8799 55.892 43.1999 56.148 43.8399C56.404 44.4372 56.6814 45.2052 56.98 46.1439C57.3214 47.0399 57.7267 48.0426 58.196 49.1519C58.708 50.2186 59.3907 51.2212 60.244 52.1599C61.14 53.0559 62.2494 53.8239 63.572 54.4639C64.9374 55.0612 66.6227 55.3599 68.628 55.3599ZM120.195 50.8159C120.195 51.8399 120.003 52.7999 119.619 53.6959C119.277 54.5919 118.787 55.3812 118.147 56.0639C117.549 56.7466 116.824 57.2799 115.971 57.6639C115.117 58.0479 114.179 58.2399 113.155 58.2399C112.173 58.2399 111.213 58.0906 110.275 57.7919C109.336 57.4932 108.483 57.0239 107.715 56.3839C106.947 55.7012 106.285 54.8266 105.731 53.7599C105.219 52.6506 104.856 51.3066 104.643 49.7279C104.387 50.7946 103.981 51.7972 103.427 52.7359C102.915 53.6746 102.275 54.5066 101.507 55.2319C100.739 55.9572 99.8425 56.5332 98.8185 56.9599C97.8372 57.3866 96.7705 57.5999 95.6185 57.5999C93.9119 57.5999 92.3972 57.3226 91.0745 56.7679C89.7519 56.2132 88.6425 55.4666 87.7465 54.5279C86.8505 53.5466 86.1679 52.4372 85.6985 51.1999C85.2292 49.9199 84.9945 48.5546 84.9945 47.1039C84.9945 45.2692 85.2292 43.4986 85.6985 41.7919C86.1679 40.0852 86.8292 38.5066 87.6825 37.0559C88.5359 35.5626 89.5599 34.2399 90.7545 33.0879C91.9919 31.9359 93.3359 31.0186 94.7865 30.3359C93.5065 29.3119 92.1412 28.2879 90.6905 27.2639C89.2825 26.1972 87.9812 25.0666 86.7865 23.8719C85.5919 22.6346 84.6105 21.3119 83.8425 19.9039C83.0319 18.4532 82.6265 16.8746 82.6265 15.1679C82.6265 14.3146 82.7972 13.5892 83.1385 12.9919C83.4799 12.3946 83.8852 11.9252 84.3545 11.5839C84.8239 11.1999 85.3145 10.9439 85.8265 10.8159C86.3385 10.6452 86.7439 10.5599 87.0425 10.5599C89.6025 10.5599 92.2265 11.1572 94.9145 12.3519C97.6025 13.5039 100.355 15.0186 103.171 16.8959C102.701 16.3839 102.232 15.8932 101.763 15.4239C101.293 14.9546 100.867 14.4852 100.483 14.0159C100.141 13.5039 99.8639 12.9492 99.6505 12.3519C99.4372 11.7546 99.3305 11.0719 99.3305 10.3039C99.3305 9.15189 99.6932 8.17056 100.419 7.35989C101.187 6.50656 102.296 6.07989 103.747 6.07989C105.453 6.07989 107.181 6.74122 108.931 8.06389C110.68 9.34389 112.259 10.9439 113.667 12.8639C115.075 14.7412 116.227 16.7466 117.123 18.8799C118.019 21.0132 118.467 22.8906 118.467 24.5119C118.467 25.7492 118.147 26.7946 117.507 27.6479C116.867 28.5012 115.843 28.9279 114.435 28.9279C113.752 28.9279 113.005 28.8639 112.195 28.7359C111.384 28.5652 110.403 28.2239 109.251 27.7119C110.36 28.5226 111.384 29.5252 112.323 30.7199C113.261 31.9146 113.731 33.0452 113.731 34.1119C113.731 34.8372 113.432 35.4986 112.835 36.0959C112.237 36.6932 111.448 36.9919 110.467 36.9919C111.576 37.6746 112.707 38.5492 113.859 39.6159C115.011 40.6399 116.056 41.7706 116.995 43.0079C117.933 44.2452 118.701 45.5466 119.299 46.9119C119.896 48.2346 120.195 49.5359 120.195 50.8159ZM112.963 56.6399C114.584 56.6399 115.864 56.0852 116.803 54.9759C117.784 53.8239 118.275 52.4799 118.275 50.9439C118.275 49.5359 117.869 48.0852 117.059 46.5919C116.248 45.0559 115.245 43.6266 114.051 42.3039C112.856 40.9386 111.555 39.7226 110.147 38.6559C108.781 37.5892 107.523 36.7572 106.371 36.1599L103.747 34.8799V33.1519L108.419 35.1359C109.059 35.3492 109.549 35.4559 109.891 35.4559C110.531 35.4559 111 35.2852 111.299 34.9439C111.64 34.6026 111.811 34.2612 111.811 33.9199C111.811 33.1092 111.405 32.2346 110.595 31.2959C109.827 30.3572 108.888 29.4399 107.779 28.5439C106.712 27.6479 105.603 26.8159 104.451 26.0479C103.341 25.2372 102.445 24.5759 101.763 24.0639L102.019 22.1439L105.091 23.8719C107.267 25.1092 108.995 25.9626 110.275 26.4319C111.555 26.9012 112.621 27.1359 113.475 27.1359C115.523 27.1359 116.547 26.1332 116.547 24.1279C116.547 22.7199 116.141 21.0772 115.331 19.1999C114.52 17.3226 113.496 15.5306 112.259 13.8239C111.021 12.0746 109.677 10.6026 108.227 9.40789C106.776 8.21322 105.411 7.61589 104.131 7.61589C103.277 7.61589 102.573 7.87189 102.019 8.38389C101.507 8.85322 101.251 9.53589 101.251 10.4319C101.251 11.1572 101.421 11.8612 101.763 12.5439C102.104 13.1839 102.531 13.8239 103.043 14.4639C103.555 15.0612 104.109 15.6159 104.707 16.1279C105.304 16.6399 105.859 17.1092 106.371 17.5359L110.531 21.1199L109.507 22.3359C108.184 21.5252 106.605 20.5439 104.771 19.3919C102.979 18.2399 101.101 17.1306 99.1385 16.0639C97.1759 14.9546 95.1919 14.0159 93.1865 13.2479C91.2239 12.4799 89.4105 12.0959 87.7465 12.0959C86.6799 12.0959 85.8692 12.4372 85.3145 13.1199C84.8025 13.7599 84.5465 14.5279 84.5465 15.4239C84.5465 16.5332 84.8025 17.6212 85.3145 18.6879C85.8265 19.7119 86.4665 20.7146 87.2345 21.6959C88.0452 22.6346 88.9412 23.5092 89.9225 24.3199C90.9039 25.1306 91.8425 25.8772 92.7385 26.5599C93.6772 27.2426 94.5305 27.8399 95.2985 28.3519C96.0665 28.8639 96.6425 29.2692 97.0265 29.5679V31.1679C95.4905 31.9359 94.0825 32.8959 92.8025 34.0479C91.5652 35.1572 90.4985 36.4159 89.6025 37.8239C88.7492 39.1892 88.0879 40.6399 87.6185 42.1759C87.1492 43.7119 86.9145 45.2692 86.9145 46.8479C86.9145 48.2986 87.1279 49.5999 87.5545 50.7519C87.9812 51.8612 88.5785 52.8212 89.3465 53.6319C90.1145 54.3999 90.9892 54.9972 91.9705 55.4239C92.9945 55.8079 94.0825 55.9999 95.2345 55.9999C96.7279 55.9999 98.0079 55.6372 99.0745 54.9119C100.184 54.1439 101.101 53.1839 101.827 52.0319C102.552 50.8799 103.085 49.5999 103.427 48.1919C103.811 46.7839 104.003 45.4186 104.003 44.0959H105.603C105.603 45.4186 105.709 46.8266 105.923 48.3199C106.179 49.7706 106.584 51.1146 107.139 52.3519C107.736 53.5892 108.504 54.6132 109.443 55.4239C110.381 56.2346 111.555 56.6399 112.963 56.6399ZM147.705 55.9999C147.705 56.6399 147.406 56.9599 146.809 56.9599C146.596 56.9599 146.297 56.8106 145.913 56.5119C145.572 56.2132 145.102 55.4452 144.505 54.2079L127.865 20.4799V51.6479C127.865 52.7999 128.185 53.6106 128.825 54.0799C129.508 54.5066 130.254 54.8266 131.065 55.0399C131.876 55.2106 132.601 55.3599 133.241 55.4879C133.924 55.6159 134.265 55.9359 134.265 56.4479C134.265 56.6612 134.18 56.8532 134.009 57.0239C133.838 57.1946 133.604 57.2586 133.305 57.2159C131.812 57.0026 130.574 56.8532 129.593 56.7679C128.654 56.6826 127.758 56.6399 126.905 56.6399C126.052 56.6399 125.134 56.6826 124.153 56.7679C123.214 56.8532 121.998 57.0026 120.505 57.2159C120.206 57.2586 119.972 57.1946 119.801 57.0239C119.673 56.8532 119.609 56.6612 119.609 56.4479C119.609 55.9359 119.929 55.6159 120.569 55.4879C121.252 55.3599 121.977 55.2106 122.745 55.0399C123.556 54.8266 124.281 54.5066 124.921 54.0799C125.604 53.6106 125.945 52.7999 125.945 51.6479V16.7679C125.945 15.6159 125.604 14.8266 124.921 14.3999C124.281 13.9306 123.556 13.6106 122.745 13.4399C121.977 13.2266 121.252 13.0559 120.569 12.9279C119.929 12.7999 119.609 12.4799 119.609 11.9679C119.609 11.7546 119.673 11.5626 119.801 11.3919C119.972 11.2212 120.206 11.1572 120.505 11.1999C122.084 11.4132 123.364 11.5839 124.345 11.7119C125.326 11.7972 126.265 11.8186 127.161 11.7759V11.8399C127.716 11.8399 128.292 11.9892 128.889 12.2879C129.486 12.5866 129.913 12.9919 130.169 13.5039L145.785 45.3119V16.7679C145.785 15.6159 145.444 14.8266 144.761 14.3999C144.121 13.9306 143.396 13.6106 142.585 13.4399C141.817 13.2266 141.092 13.0559 140.409 12.9279C139.769 12.7999 139.449 12.4799 139.449 11.9679C139.449 11.7546 139.513 11.5626 139.641 11.3919C139.812 11.2212 140.046 11.1572 140.345 11.1999C141.838 11.4132 143.054 11.5626 143.993 11.6479C144.974 11.7332 145.892 11.7759 146.745 11.7759C147.598 11.7759 148.494 11.7332 149.433 11.6479C150.414 11.5626 151.652 11.4132 153.145 11.1999C153.444 11.1572 153.678 11.2212 153.849 11.3919C154.02 11.5626 154.105 11.7546 154.105 11.9679C154.105 12.4799 153.764 12.7999 153.081 12.9279C152.441 13.0559 151.716 13.2266 150.905 13.4399C150.094 13.6106 149.348 13.9306 148.665 14.3999C148.025 14.8266 147.705 15.6159 147.705 16.7679V55.9999ZM134.329 9.21589C133.689 9.21589 133.028 9.06656 132.345 8.76789C131.662 8.42656 131.044 8.02122 130.489 7.55189C129.977 7.03989 129.55 6.48522 129.209 5.88789C128.868 5.24789 128.697 4.60789 128.697 3.96789C128.697 3.37056 128.953 2.85856 129.465 2.43189C129.977 2.00522 130.553 1.79189 131.193 1.79189C131.705 1.79189 132.068 1.94122 132.281 2.23989C132.537 2.53856 132.75 2.87989 132.921 3.26389C133.134 3.64789 133.348 3.98922 133.561 4.28789C133.774 4.58656 134.094 4.73589 134.521 4.73589C134.905 4.73589 135.225 4.56522 135.481 4.22389C135.78 3.88256 136.1 3.51989 136.441 3.13589C136.782 2.75189 137.166 2.38922 137.593 2.04789C138.062 1.70656 138.66 1.53589 139.385 1.53589C140.025 1.53589 140.665 1.68522 141.305 1.98389C141.945 2.28256 142.542 2.68789 143.097 3.19989C143.652 3.71189 144.1 4.28789 144.441 4.92789C144.782 5.52522 144.953 6.14389 144.953 6.78389C144.953 7.38122 144.697 7.89322 144.185 8.31989C143.673 8.70389 143.097 8.89589 142.457 8.89589C141.988 8.89589 141.625 8.74656 141.369 8.44789C141.113 8.14922 140.878 7.82922 140.665 7.48789C140.452 7.10389 140.238 6.76256 140.025 6.46389C139.854 6.16522 139.598 6.01589 139.257 6.01589C138.916 6.01589 138.617 6.18656 138.361 6.52789C138.148 6.86922 137.87 7.23189 137.529 7.61589C137.23 7.99989 136.825 8.36256 136.313 8.70389C135.844 9.04522 135.182 9.21589 134.329 9.21589ZM173.369 11.1999C176.27 11.1999 178.596 11.8612 180.345 13.1839C182.094 14.5066 183.374 16.2559 184.185 18.4319C184.996 20.6079 185.358 23.1039 185.273 25.9199C185.23 28.6932 184.804 31.5306 183.993 34.4319C183.182 37.2906 182.052 40.1279 180.601 42.9439C179.15 45.7172 177.444 48.1919 175.481 50.3679C173.561 52.5439 171.428 54.2932 169.081 55.6159C166.734 56.9386 164.238 57.5999 161.593 57.5999C158.948 57.5999 156.836 56.9386 155.257 55.6159C153.678 54.2932 152.526 52.5439 151.801 50.3679C151.118 48.1919 150.841 45.7172 150.969 42.9439C151.097 40.1279 151.545 37.2906 152.313 34.4319C153.124 31.5306 154.212 28.6932 155.577 25.9199C156.985 23.1039 158.606 20.6079 160.441 18.4319C162.276 16.2559 164.281 14.5066 166.457 13.1839C168.676 11.8612 170.98 11.1999 173.369 11.1999ZM161.657 55.9999C164.046 55.9999 166.308 55.3812 168.441 54.1439C170.617 52.9066 172.58 51.2852 174.329 49.2799C176.078 47.2319 177.614 44.9279 178.937 42.3679C180.26 39.7652 181.284 37.1199 182.009 34.4319C182.777 31.7012 183.225 29.0559 183.353 26.4959C183.481 23.8932 183.225 21.5892 182.585 19.5839C181.945 17.5359 180.9 15.8932 179.449 14.6559C178.041 13.4186 176.142 12.7999 173.753 12.7999C171.534 12.7999 169.401 13.4186 167.353 14.6559C165.348 15.8932 163.513 17.5359 161.849 19.5839C160.185 21.5892 158.713 23.8932 157.433 26.4959C156.153 29.0559 155.129 31.7012 154.361 34.4319C153.636 37.1199 153.188 39.7652 153.017 42.3679C152.889 44.9279 153.081 47.2319 153.593 49.2799C154.148 51.2852 155.086 52.9066 156.409 54.1439C157.732 55.3812 159.481 55.9999 161.657 55.9999ZM171.513 21.8879H173.689L165.561 47.8079L163.449 47.6799L171.513 21.8879ZM230.143 44.9919C230.143 48.7892 229.119 51.7972 227.071 54.0159C225.023 56.2346 222.207 57.3439 218.623 57.3439C217.172 57.3439 215.721 57.1306 214.271 56.7039C212.863 56.2772 211.604 55.5306 210.495 54.4639C209.385 53.3972 208.489 51.9892 207.807 50.2399C207.124 48.4906 206.783 46.3146 206.783 43.7119V16.7679C206.783 15.6159 206.527 14.8266 206.015 14.3999C205.545 13.9306 205.012 13.6106 204.415 13.4399C203.817 13.2266 203.263 13.0559 202.751 12.9279C202.281 12.7999 202.047 12.4799 202.047 11.9679C202.047 11.7546 202.111 11.5626 202.239 11.3919C202.409 11.2212 202.644 11.1572 202.943 11.1999C204.436 11.4132 205.652 11.5626 206.591 11.6479C207.572 11.7332 208.489 11.7759 209.343 11.7759C210.196 11.7759 211.092 11.7332 212.031 11.6479C213.012 11.5626 214.249 11.4132 215.743 11.1999C216.041 11.1572 216.276 11.2212 216.447 11.3919C216.617 11.5626 216.703 11.7546 216.703 11.9679C216.703 12.4799 216.447 12.7999 215.935 12.9279C215.465 13.0559 214.911 13.2266 214.271 13.4399C213.673 13.6106 213.119 13.9306 212.607 14.3999C212.137 14.8266 211.903 15.6159 211.903 16.7679V44.2879C211.903 47.7439 212.521 50.4106 213.759 52.2879C214.996 54.1226 217.023 55.0399 219.839 55.0399C220.863 55.0399 221.865 54.8692 222.847 54.5279C223.871 54.1866 224.767 53.6106 225.535 52.7999C226.345 51.9892 226.985 50.9439 227.455 49.6639C227.967 48.3412 228.223 46.7199 228.223 44.7999V16.7679C228.223 15.6159 227.881 14.8266 227.199 14.3999C226.559 13.9306 225.833 13.6106 225.023 13.4399C224.255 13.2266 223.529 13.0559 222.847 12.9279C222.207 12.7999 221.887 12.4799 221.887 11.9679C221.887 11.7546 221.951 11.5626 222.079 11.3919C222.249 11.2212 222.484 11.1572 222.783 11.1999C224.276 11.4132 225.492 11.5626 226.431 11.6479C227.412 11.7332 228.329 11.7759 229.183 11.7759C230.036 11.7759 230.932 11.7332 231.871 11.6479C232.852 11.5626 234.089 11.4132 235.583 11.1999C235.881 11.1572 236.116 11.2212 236.287 11.3919C236.457 11.5626 236.543 11.7546 236.543 11.9679C236.543 12.4799 236.201 12.7999 235.519 12.9279C234.879 13.0559 234.153 13.2266 233.343 13.4399C232.532 13.6106 231.785 13.9306 231.103 14.3999C230.463 14.8266 230.143 15.6159 230.143 16.7679V44.9919ZM262.243 51.6479L254.755 36.6719L247.395 51.0079C246.968 51.8612 246.798 52.5439 246.883 53.0559C246.968 53.5252 247.203 53.9092 247.587 54.2079C247.971 54.5066 248.44 54.7199 248.995 54.8479C249.55 54.9759 250.062 55.1039 250.531 55.2319C251.043 55.3599 251.427 55.5092 251.683 55.6799C251.982 55.8506 252.067 56.1066 251.939 56.4479C251.854 56.6612 251.704 56.8532 251.491 57.0239C251.32 57.1946 251.043 57.2586 250.659 57.2159C249.251 57.0026 248.078 56.8532 247.139 56.7679C246.243 56.6826 245.368 56.6399 244.515 56.6399C243.662 56.6399 242.744 56.6826 241.763 56.7679C240.782 56.8532 239.48 57.0026 237.859 57.2159C237.518 57.2586 237.304 57.1946 237.219 57.0239C237.176 56.8532 237.198 56.6612 237.283 56.4479C237.496 55.9359 237.88 55.6372 238.435 55.5519C239.032 55.4666 239.715 55.2959 240.483 55.0399C241.294 54.7839 242.147 54.3146 243.043 53.6319C243.939 52.9492 244.835 51.7546 245.731 50.0479L253.731 34.5599L244.835 16.7679C244.28 15.6586 243.64 14.8692 242.915 14.3999C242.19 13.9306 241.507 13.5892 240.867 13.3759C240.227 13.1626 239.672 12.9919 239.203 12.8639C238.776 12.6932 238.52 12.3732 238.435 11.9039C238.392 11.6906 238.435 11.5199 238.563 11.3919C238.734 11.2212 238.99 11.1572 239.331 11.1999C240.952 11.4132 242.254 11.5626 243.235 11.6479C244.216 11.7332 245.134 11.7759 245.987 11.7759C246.84 11.7759 247.715 11.7332 248.611 11.6479C249.55 11.5626 250.723 11.4132 252.131 11.1999C252.643 11.1572 252.984 11.3279 253.155 11.7119C253.326 12.0532 253.326 12.3092 253.155 12.4799C252.984 12.6506 252.728 12.7999 252.387 12.9279C252.088 13.0559 251.747 13.1839 251.363 13.3119C250.979 13.4399 250.659 13.6319 250.403 13.8879C250.19 14.1439 250.062 14.5066 250.019 14.9759C249.976 15.4026 250.147 15.9999 250.531 16.7679L256.611 28.9919L262.563 17.4079C262.99 16.5546 263.16 15.8932 263.075 15.4239C262.99 14.9119 262.755 14.5279 262.371 14.2719C261.987 13.9732 261.518 13.7599 260.963 13.6319C260.408 13.4612 259.875 13.3332 259.363 13.2479C258.894 13.1199 258.51 12.9706 258.211 12.7999C257.955 12.6292 257.891 12.3732 258.019 12.0319C258.104 11.8186 258.232 11.6266 258.403 11.4559C258.616 11.2426 258.915 11.1786 259.299 11.2639C260.707 11.4772 261.859 11.6266 262.755 11.7119C263.694 11.7972 264.59 11.8399 265.443 11.8399C266.296 11.8399 267.214 11.7972 268.195 11.7119C269.219 11.6266 270.52 11.4772 272.099 11.2639C272.398 11.2212 272.59 11.2852 272.675 11.4559C272.76 11.6266 272.76 11.8186 272.675 12.0319C272.462 12.5439 272.056 12.8426 271.459 12.9279C270.862 13.0132 270.179 13.1839 269.411 13.4399C268.643 13.6959 267.79 14.1652 266.851 14.8479C265.955 15.5306 265.08 16.7252 264.227 18.4319L257.699 31.1039L267.939 51.6479C268.494 52.7999 269.091 53.6106 269.731 54.0799C270.414 54.5492 271.032 54.8906 271.587 55.1039C272.184 55.2746 272.675 55.4452 273.059 55.6159C273.486 55.7439 273.72 56.0426 273.763 56.5119C273.806 56.7252 273.742 56.8959 273.571 57.0239C273.443 57.1946 273.208 57.2586 272.867 57.2159C271.288 57.0026 269.987 56.8532 268.963 56.7679C267.982 56.6826 267.064 56.6399 266.211 56.6399C265.358 56.6399 264.462 56.6826 263.523 56.7679C262.627 56.8532 261.475 57.0026 260.067 57.2159C259.555 57.3012 259.214 57.1519 259.043 56.7679C258.872 56.4266 258.894 56.1706 259.107 55.9999C259.32 55.8292 259.598 55.6799 259.939 55.5519C260.323 55.4239 260.707 55.2959 261.091 55.1679C261.518 54.9972 261.88 54.7839 262.179 54.5279C262.478 54.2719 262.648 53.9092 262.691 53.4399C262.776 52.9706 262.627 52.3732 262.243 51.6479Z" fill="white"/>
</svg>
