<?xml version="1.0" encoding="UTF-8"?>
<svg id="Capa_2" data-name="Capa 2" xmlns="http://www.w3.org/2000/svg" viewBox="0 0 240.4 235.3">
  <defs>
    <style>
      .cls-1 {
        fill: #1f2937;
      }

      .cls-1, .cls-2 {
        stroke-width: .5px;
      }

      .cls-1, .cls-2, .cls-3 {
        stroke: #d5ff00;
        stroke-linecap: round;
        stroke-linejoin: round;
      }

      .cls-2, .cls-3 {
        fill: #d5ff00;
      }

      .cls-3 {
        stroke-width: .31px;
      }
    </style>
  </defs>
  <g id="Capa_2-2" data-name="Capa 2">
    <g id="Capa_1-2" data-name="Capa 1-2">
      <path id="AL" class="cls-1" d="M201.45,98.75l.4,1.2,1.4-.6,1.2,1.7,1.3.7.6,2.3-.5,2.2,1,2.7,2.3,1.5.1,1.7-1.7.9-.1,2.1-2.2,3.1-.9-.4-.2-1.4-3.1-2.2-.7-3,.1-4.4.5-1.9-.9-1-.5-2.1,1.9-3.1h0Z"/>
      <path id="AT" class="cls-1" d="M184.05,61.55l-.3.8.7,2.1-.2,2.6h-2.8l1.1,1.4-1.3,4-.9,1.1-4.4.1-2.4,1.5-4.2-.5-7.3-1.7-1.3-2.1-4.9,1.1-.5,1.2-3.1-.9-2.6-.2-2.3-1.2.7-1.5-.2-1.1,1.4-.3,2.7,1.7.6-1.7,4.4.3,3.5-1.1,2.4.2,1.7,1.3.4-1.1-1-4.1,1.7-.8,1.6-2.9,3.8,2.1,2.6-2.6,1.7-.5,4,1.9,2.3-.3,2.4,1.2h0Z"/>
      <path id="BE" class="cls-1" d="M129.95,47.85l-.4,4.2-1.3.2-.4,3.5-4.4-2.9-2.5.5-3.5-2.9-2.4-2.5-2.2-.1-.8-2.2,3.9-1.2,3.6.5,4.5-1.3,3.1,2.7,2.8,1.5h0Z"/>
      <path id="BA" class="cls-1" d="M196.45,85.05l1.9-.1-1.1,2.8,2.7,2.5-.5,2.9-1.1.3-.9.6-1.6,1.5-.4,3.5-4.8-2.4-2.1-2.7-2.1-1.4-2.5-2.4-1.3-1.9-2.7-3,.8-2.6,2,1.5,1-1.4,2.3-.1,4.5,1.1,3.5-.1,2.4,1.4h0Z"/>
      <path id="CH" class="cls-1" d="M147.85,68.25l.2,1.1-.7,1.5,2.3,1.2,2.6.2-.3,2.5-2.1,1.1-3.8-.8-1,2.5-2.4.2-.9-1-2.7,2.2-2.5.3-2.2-1.4-1.8-2.7-2.4,1v-2.9l3.6-3.5-.2-1.6,2.3.6,1.3-1.1h4.2l1-1.3,5.5,1.9h0Z"/>
      <path id="CZ" class="cls-1" d="M173.15,45.95l2.5,2,3.7.5-.2,1.7,2.8,1.3.6-1.6,3.4.7.7,2,3.7.3,2.6,3.1h-1.5l-.7,1.1-1.1.3-.2,1.4-.9.3-.1.6-1.6.6-2.2-.1-.6,1.4-2.4-1.2-2.3.3-4-1.9-1.7.5-2.6,2.6-3.8-2.1-3-2.6-2.6-1.5-.7-2.7-1-1.8,3.4-1.3,1.7-1.6,3.5-1.2,1.1-1.2,1.3.7,2.2-.6h0Z"/>
      <path id="DE" class="cls-1" d="M167.35,29.65l1.4,3.1-1.2,1.7,1.9,2.1,1.5,3.3-.2,2.2,2.4,3.9-2.2.6-1.3-.7-1.1,1.2-3.5,1.2-1.7,1.6-3.4,1.3,1,1.8.7,2.7,2.6,1.5,3,2.6-1.6,2.9-1.7.8,1,4.1-.4,1.1-1.7-1.3-2.4-.2-3.5,1.1-4.4-.3-.6,1.7-2.7-1.7-1.4.3-5.5-1.9-1,1.3h-4.2l.4-4.5,2.4-4.2-7.2-1.2-2.4-1.6.2-2.7-1-1.4.4-4.2-1.1-6.5h2.9l1.2-2.3.9-5.6-.9-2.1.8-1.3,4-.3,1,1.3,3.1-3-1.3-2.3-.4-3.4,3.7.8,2.9-.9.3,2.3,4.9,1.4.1,2.2,4.7-1.2,2.6-1.6,5.6,2.4,2.4,1.9h0Z"/>
      <path class="cls-1" d="M159.55,18.45l-2.4,4.9-5.2-3.5-.9-2.5,6.8-2,1.7,3.1Z"/>
      <path class="cls-1" d="M146.75,22.25l-2.9.9-3.7-.8-2.1-3.4-.4-6.1.6-1.7,1.3-1.8,4-.3,1.6-1.7,3.6-1.7v3.1l-1.2,2,.7,1.6,2.6.9-1,2.3-1.4-.6-3.1,4.3,1.4,3Z"/>
      <path class="cls-1" d="M70.15,28.95l-3.5-1.2-3,.1,1.2-3.3-.9-3.2,4-.3,4.9,3.8-2.7,4.1h0Z"/>
      <path class="cls-1" d="M86.05.25l-5.1,6.5,4.7-.8h5.1l-1.3,4.9-4.3,5.4,4.9.3.3.7,4.2,7.1,3.2,1,2.9,7,1.4,2.4,5.9,1.1-.6,4-2.4,1.8,1.9,3.2-4.4,3.2-6.5-.1-8.4,1.8-2.2-1.3-3.3,2.9-4.5-.7-3.6,2.4-2.5-1.2,7.3-6.5,4.4-1.4-7.6-1-1.3-2.5,5.1-1.9-2.5-3.3,1-4,7.1.6.8-3.6-3.1-3.7-.1-.1-5.7-1.1-1.1-1.6,1.8-2.7-1.5-1.7-2.6,2.9-.1-5.9-2.2-3,1.9-6.2,3.8-4.8,3.6.4,5.6-.5h0Z"/>
      <path class="cls-1" d="M226.15,143.35l3.1,2.2,4.1-.4,4,.4v1.2l2.8-.8-.5,1.9-7.6.5-.1-1-6.6-1.3.8-2.7h0Z"/>
      <path class="cls-1" d="M235.35,110.65l-3.2-.2-2.7-.6-6.2,1.6,4,3.6-2.5,1.1h-2.9l-3.1-3.3-.9,1.4,1.6,3.8,2.9,3-1.9,1.4,3.2,2.9,2.8,1.9.4,3.6-5-1.7,1.8,3.3-3.3.6,2.5,5.7-3.5.1-4.6-2.8-2.4-5.1-1.3-4.3-2.3-2.9-3-3.7-.5-1.8,2.2-3.1.1-2.1,1.7-.9-.1-1.7,3.4-.5,1.8-1.4,2.8.1.8-1.1,1-.2,3.8.2,4-1.8,3.9,2.3,4.6-.6-.3-3.2,2.7,1.7-1.1,4-1.2.7h0Z"/>
      <path id="HR" class="cls-1" d="M194.95,78.35l1.5,2.5,1.7,1.8-1.7,2.4-2.4-1.4-3.5.1-4.5-1.1-2.3.1-1,1.4-2-1.5-.8,2.6,2.7,3,1.3,1.9,2.5,2.4,2.1,1.4,2.1,2.7,4.8,2.4-.5,1-5-2.3-3.2-2.3-4.8-1.9-4.7-4.6,1-.5-2.5-2.7-.3-2.1-3.3-1-1.4,2.7-1.6-2.1v-2.2l.1-.1,3.6.2.8-1,1.8,1,2,.1-.1-1.7,1.7-.7.3-2.5,3.9-1.7,1.6.8,4,2.7,4.3,1.2,1.8-1h0Z"/>
      <path id="HU" class="cls-1" d="M209.65,62.65l3,1.7.5,1.7-2.9,1.3-1.9,4.2-2.6,4.3-3.9,1.2-3.2-.3-3.7,1.6-1.8,1-4.3-1.2-4-2.7-1.6-.8-1.2-2.1-.8-.1,1.3-4-1.1-1.4h2.8l.2-2.6,2.7,1.7,1.9.6,4.1-.7.3-1.3,1.9-.2,2.3-.9.6.4,2.3-.8,1-1.5,1.6-.4,5.5,1.9,1-.6h0Z"/>
      <path id="IE" class="cls-1" d="M70.15,28.95l.7,4.4-3.9,5.5-8.8,3.6-6.8-.9,4.3-6.4-2.1-6.2,6.7-4.8,3.7-2.8.9,3.2-1.2,3.3,3-.1,3.5,1.2h0Z"/>
      <path class="cls-1" d="M181.65,127.15l-1.7,5.1.9,1.9-.9,3.3-4.2-2.4-2.7-.7-7.5-3.2.5-3.3,6.2.6,5.4-.7,4-.6h0Z"/>
      <path class="cls-1" d="M147.65,108.15l3.3,4.5-.4,8.5-2.4-.4-2.1,2.1-2-1.7-.5-7.7-1.3-3.6,2.9.3,2.5-2h0Z"/>
      <path class="cls-1" d="M169.35,74.65l-.4,3.1,1.4,2.7-4.1-1-3.9,2.3.4,3.1-.5,1.8,1.9,3.2,5,3.2,2.9,5.3,6.1,5.1,4-.1,1.4,1.4-1.4,1.3,4.8,2.3,4,1.9,4.7,3.4.6,1.1-.8,2.3-3.1-3-4.6-1-1.9,4.1,3.9,2.4-.4,3.3-2.1.4-2.5,5.5-2.2.5-.1-2,.9-3.4,1.1-1.4-2.3-3.7-1.8-3.2-2.2-.8-1.8-2.7-3.4-1.2-2.4-2.6-3.8-.4-4.3-2.8-4.9-4.2-3.7-3.6-1.9-6.3-2.6-.7-4.2-2.1-2.3.8-2.9,3-2.1.4.5-2.7-2.8-.8-1.5-4.9,1.7-1.9-1.5-2.4.1-1.8,2.2,1.4,2.5-.3,2.7-2.2.9,1,2.4-.2,1-2.5,3.8.8,2.1-1.1.3-2.5,3.1.9.5-1.2,4.9-1.1,1.3,2.1,7.3,1.7h0Z"/>
      <path id="MA" class="cls-1" d="M88.25,146.75l1.9,4.1.3,3.9,1.9,6.8,1.4,1.4-1,2.5-7.1,1.1-2.5,2.3-3.1.6-.3,4.8-6.4,2.5-2.1,3.2-4.5,1.7-5.4,1-8.9,4.8-.1,7.6h-.9l.1,3.4-3.4.2-1.8,1.5h-2.5l-2-.9-4.6.7-1.9,5-1.8.5-2.7,8.1-7.9,6.9-2,8.9-2.4,2.9-.7,2.3-12.5.5h-.1l.3-3,2.2-1.7,1.9-3.4-.3-2.2,2-4.5,3.2-4.1,1.9-1,1.6-3.7.2-3.5,2.1-3.9,3.8-2.4,3.6-6.5.1-.1,2.9-2.5,5.1-.7,4.4-4.4,2.8-1.7,4.7-5.4-1.2-7.9,2.2-5.6.9-3.4,3.6-4.3,5.4-2.9,4.1-2.7,3.7-6.6,1.8-4,3.9.1,3.1,2.7,5.1-.4,5.5,1.4h2.4Z"/>
      <path id="MK" class="cls-1" d="M218.95,107.35l-1,.2-.8,1.1-2.8-.1-1.8,1.4-3.4.5-2.3-1.5-1-2.7.5-2.2.7.1.1-1.3,2.9-1,1.2-.3,1.7-.3,2.4-.2,2.8,2.1.8,4.2h0Z"/>
      <path id="ME" class="cls-1" d="M204.05,97.95l-.8,1.4-1.4.6-.4-1.2-1.9,3.1.5,2.1-1.1-.5-1.7-2.1-2.3-1.3.5-1,.4-3.5,1.6-1.5.9-.6,1.4,1.1.9.9,1.7.7,2.1,1.3-.4.5h0Z"/>
      <path id="PL" class="cls-1" d="M193.35,25.55l5.9.7,8.8-.1,2.5.7,1.4,1.9.6,2.7,1.7,2.3.4,2.4-2.8,1.3,1.9,2.8.5,2.8,3.2,5.4-.3,1.7-2.3.7-3.8,5.2,1.6,2.8-1.1-.4-5-2.4-3.5.9-2.4-.6-2.8,1.3-2.7-2.2-1.9.9-.3-.4-2.6-3.1-3.7-.3-.7-2-3.4-.7-.6,1.6-2.8-1.3.2-1.7-3.7-.5-2.5-2-2.4-3.9.2-2.2-1.5-3.3-1.9-2.1,1.2-1.7-1.4-3.1,3.1-1.8,7.1-2.8,5.8-2,4.8,1,.6,1.5h4.6Z"/>
      <path id="RS" class="cls-1" d="M215.45,88.95l-1.1,1.4.7,2.4,2.8,2.7-1.8,2-.6,2,.6.8-.7.8-2.4.2-1.7.3-.3-.5.6-.7.4-1.6-.7.1-1.1-1.2-.9-.3-.8-1-1-.4-.8-.9-.9.4-.5,2.1-1.2.4.4-.5-2.1-1.3-1.7-.7-.9-.9-1.4-1.1,1.1-.3.5-2.9-2.7-2.5,1.1-2.8-1.9.1,1.7-2.4-1.7-1.8-1.5-2.5,3.7-1.6,3.2.3,3,2.4.8,2.1,3.2,1.4.7,2.6,3.1,1.9,1.5-1.4,1.3.7-1,1.1,1,1.1h0Z"/>
      <path id="SK" class="cls-1" d="M211.55,58.45l-1.2,1.7-.7,2.5-1,.6-5.5-1.9-1.6.4-1,1.5-2.3.8-.6-.4-2.3.9-1.9.2-.3,1.3-4.1.7-1.9-.6-2.7-1.7-.7-2.1.3-.8.6-1.4,2.2.1,1.6-.6.1-.6.9-.3.2-1.4,1.1-.3.7-1.1h1.5l.3.4,1.9-.9,2.7,2.2,2.8-1.3,2.4.6,3.5-.9,5,2.4h0Z"/>
      <path id="SI" class="cls-1" d="M183.25,74.65l-3.9,1.7-.3,2.5-1.7.7.1,1.7-2-.1-1.8-1-.8,1-3.6-.2,1.1-.5-1.4-2.7.4-3.1,4.2.5,2.4-1.5,4.4-.1.9-1.1.8.1,1.2,2.1h0Z"/>
      <path id="XK" class="cls-1" d="M211.25,101.55l-1.2.3-2.9,1-.1,1.3-.7-.1-.6-2.3-1.3-.7-1.2-1.7.8-1.4,1.2-.4.5-2.1.9-.4.8.9,1,.4.8,1,.9.3,1.1,1.2.7-.1-.4,1.6-.6.7.3.5h0Z"/>
      <path id="NL" class="cls-1" d="M129.95,47.85l-2.8-1.5-3.1-2.7-4.5,1.3-3.6-.5,2.5-1.7,4-9,6.5-2.6,4,.2.9,2.1-.9,5.6-1.2,2.3h-2.9l1.1,6.5h0Z"/>
      <path id="PT" class="cls-1" d="M60.35,134.45l-2.2,1.6-2.8-.9-2.7.7.9-5-.3-3.9-2.4-.6-1.1-2.4.5-4.2,2.2-2.3.5-2.6,1.2-3.8v-2.7l-.9-2.3-.2-2.2,1.9-1.6,2.2-.9,1.2,3.1h3l.9-.8,3.1.2,1.3,3.2-2.4,1.7-.3,5-.8.9-.3,3.1-2.3.5,2,3.8-1.6,4.2,1.8,1.9-.8,1.7-2,2.4.4,2.2h0Z"/>
      <path id="ES" class="cls-1" d="M90.05,94.15l2,2.4,9.5,2.9,1.9-1.4,5.8,2.9,5.9-.8.4,3.7-4.9,4.2-6.6,1.4-.5,2.1-3.2,3.5-2,5.2,2,3.7-3,2.8-1.2,4.2-4,1.3-3.7,4.9-6.8.1-5-.1-3.4,2.2-2.1,2.4-2.6-.5-1.9-2.2-1.4-3.6-4.9-1-.4-2.2,2-2.4.8-1.7-1.8-1.9,1.6-4.2-2-3.8,2.3-.5.3-3.1.8-.9.3-5,2.4-1.7-1.3-3.2-3.1-.2-.9.8h-3l-1.2-3.1-2.2.9-1.9,1.6.5-4.5-2-2.7,7.4-4.6,6.2,1.1h6.9l5.4,1.1,4.3-.4,8.3.3h0Z"/>
      <path class="cls-1" d="M149.15,102.15l-1.5,4.9-2.4-1.3-1.3-4.2.9-2.4,3.2-2.4,1.1,5.4h0Z"/>
      <path class="cls-1" d="M127.85,55.75l1.1.5,1.4-.1,2.4,1.6,7.2,1.2-2.4,4.2-.4,4.5-1.3,1.1-2.3-.6.2,1.6-3.6,3.5v2.9l2.4-1,1.8,2.7-.1,1.8,1.5,2.4-1.7,1.9,1.5,4.9,2.8.8-.5,2.7-4.5,3.6-10.2-1.7-7.4,2.1-.6,3.8-5.9.8-5.8-2.9-1.9,1.4-9.5-2.9-2-2.4,2.7-3.8,1-12.6-5.1-6.6-3.7-3.2-7.6-2.4-.4-4.6,6.5-1.3,8.3,1.6-1.5-7.1,4.7,2.7,11.4-4.8,1.5-5.1,4.2-1.3.8,2.2,2.2.1,2.4,2.5,3.5,2.9,2.5-.5,4.4,2.9h0Z"/>
      <path class="cls-1" d="M1.85,194.15l-.3.5-.4.5-.3-.4h-.4l-.2-.2.2-.3.4.1.4-.4.3-.2.2.1.1.3Z"/>
      <path class="cls-1" d="M15.45,191.85v.5l.2.4-.2.7.1.3-.4.4-.5.2-.2.2-.6-.2-.5-.5-.2-.4v-.6l.6-.4.1-.5v-.2l.6.1h.4l.3.1.3-.1h0Z"/>
      <path class="cls-1" d="M5.55,192.65h-.2l-.3-.2-.2-.3.1-.4.1-.3h.6l.5.4.1.3-.5.5h-.2,0Z"/>
      <path class="cls-1" d="M11.65,189.15v.2l-.6.3-.4.5-.3.2v.4l-.4.7-.1.4-.5.6-.1.2h-.2l-.6.2-.1-.1-.1-.4-.3-.4-.1-.2-.2-.3v-.3l-.4-.6.5-.3.3.2.6-.2h.4l.5-.2.5-.4v-.2l.6-.3h.6l.3-.1.1.1h0Z"/>
      <path class="cls-1" d="M21.85,191.95l-.3.4-.4.1-.3-.1h-.4v-.2h.3l.6-.2.4-.3.3-.3.1-.5.1-.3.2-.5.3-.4.3-.6.2-.8.2-.2.4-.1.3.3.1.5-.1.5-.1.5v.5l-.1.1-.3.7-.3.3-.6.1-.7.3-.2.2Z"/>
      <path class="cls-1" d="M2.25,187.45l.3-.1.2.3.2.5-.2.3.1.4-.6,1-.1-.1-.1-.4-.4-.9-.1-.3-.1-.2.2-.4.3-.2.3.1h0Z"/>
      <path class="cls-1" d="M26.35,185.45v.4l-.2.5-.7.5-.5.1-.4.5-.5-.2v-.1l.2-.4v-.4l.2-.3.3-.2h.3l.3-.3h.5l.1-.1.2-.5.2-.1.2.2-.2.4h0Z"/>
      <rect class="cls-2" x="95.99" y="114.54" width="5.26" height="4.77"/>
      <rect class="cls-3" x="94.64" y="122.01" width="3.21" height="2.91"/>
      <rect class="cls-3" x="98.82" y="107.82" width="3.21" height="2.91"/>
      <rect class="cls-3" x="104.55" y="104.72" width="3.21" height="2.91"/>
      <rect class="cls-3" x="66.25" y="130.79" width="3.21" height="2.91"/>
      <rect class="cls-3" x="55.97" y="106.56" width="3.21" height="2.91"/>
      <rect class="cls-3" x="57.95" y="112.46" width="3.21" height="2.91"/>
      <rect class="cls-3" x="80.22" y="114.24" width="3.21" height="2.91"/>
      <rect class="cls-3" x="84.17" y="121.5" width="3.21" height="2.91"/>
      <rect class="cls-3" x="64.47" y="117.71" width="3.21" height="2.91"/>
      <rect class="cls-3" x="66.5" y="111.95" width="3.21" height="2.91"/>
      <rect class="cls-3" x="70.45" y="107.79" width="3.21" height="2.91"/>
      <rect class="cls-3" x="90.01" y="110.34" width="3.21" height="2.91"/>
      <rect class="cls-3" x="90.38" y="104.57" width="3.21" height="2.91"/>
      <rect class="cls-3" x="69.55" y="101.22" width="3.21" height="2.91"/>
      <rect class="cls-3" x="109.37" y="93.83" width="3.21" height="2.91"/>
      <rect class="cls-3" x="117.84" y="118.3" width="3.21" height="2.91"/>
      <rect class="cls-3" x="99.71" y="42.19" width="3.21" height="2.91"/>
      <rect class="cls-3" x="215.94" y="126.42" width="3.21" height="2.91"/>
      <rect class="cls-3" x="202.43" y="34.21" width="3.21" height="2.91"/>
      <rect class="cls-3" x="67.09" y="154.67" width="3.21" height="2.91"/>
    </g>
  </g>
</svg>